<svg width="157" height="59" viewBox="0 0 157 59" fill="none" xmlns="http://www.w3.org/2000/svg">
<path d="M0 28.0909L9.61902 0H18.2165L27.793 28.0909H21.1533L14.1732 4.89463H13.6624L6.63968 28.0909H0ZM5.32025 22.643V18.3868H23.324V22.643H5.32025Z" fill="#1E1E1E"/>
<path d="M37.292 28.6868C36.2137 28.6868 35.2632 28.5307 34.4403 28.2186C33.6175 27.9349 32.8939 27.4951 32.2697 26.8992C31.6738 26.3033 31.1772 25.5798 30.78 24.7285C30.3827 23.8489 30.0848 22.8416 29.8862 21.7066C29.7159 20.5433 29.6308 19.2664 29.6308 17.876V5.74587H35.7597V16.7694C35.7597 17.3937 35.7739 18.103 35.8023 18.8975C35.8591 19.6637 36.0009 20.4014 36.2279 21.1108C36.4549 21.7918 36.8238 22.3593 37.3345 22.8132C37.8453 23.2672 38.5547 23.4942 39.4626 23.4942C40.2288 23.4942 40.9098 23.3098 41.5056 22.9409C42.1015 22.5437 42.598 21.9762 42.9953 21.2384C43.4209 20.5007 43.7472 19.6211 43.9742 18.5996C44.2012 17.5781 44.3289 16.4289 44.3573 15.1521V5.74587H50.4862V28.0909H45.3788L45.4639 20.4298H44.8255C44.485 22.3592 43.9884 23.934 43.3358 25.1542C42.7115 26.3743 41.9029 27.2681 40.9098 27.8356C39.9166 28.4031 38.7107 28.6868 37.292 28.6868Z" fill="#1E1E1E"/>
<path d="M55.2831 28.0909V5.74587H60.4331L60.3905 13.9178H61.0715C61.2701 11.8464 61.6248 10.1723 62.1356 8.89546C62.6747 7.6186 63.3982 6.69642 64.3062 6.12893C65.2426 5.53306 66.3634 5.23513 67.6686 5.23513C68.0091 5.23513 68.3638 5.2635 68.7327 5.32025C69.1299 5.377 69.5414 5.4905 69.967 5.66075L69.7116 12.2153C69.2292 11.9883 68.7185 11.8181 68.1794 11.7046C67.6686 11.5911 67.2004 11.5343 66.7748 11.5343C65.6966 11.5343 64.7744 11.8039 64.0083 12.343C63.2706 12.8821 62.6747 13.6624 62.2207 14.6839C61.7951 15.7054 61.5255 16.9539 61.412 18.4294V28.0909H55.2831Z" fill="#1E1E1E"/>
<path d="M77.9803 28.6868C76.7602 28.6868 75.6535 28.4598 74.6604 28.0058C73.6957 27.5518 72.9154 26.8708 72.3195 25.9628C71.752 25.0265 71.4683 23.8773 71.4683 22.5153C71.4683 21.0115 71.7804 19.8197 72.4047 18.9401C73.0573 18.0321 73.8943 17.3369 74.9158 16.8546C75.9657 16.3438 77.0723 15.9749 78.2356 15.7479C79.4274 15.521 80.5624 15.3223 81.6406 15.1521C82.7756 14.9818 83.6552 14.8258 84.2795 14.6839C84.9321 14.5136 85.3861 14.2867 85.6414 14.0029C85.9252 13.7192 86.0671 13.3361 86.0671 12.8537C86.0671 12.2579 85.9252 11.7471 85.6414 11.3215C85.3577 10.8959 84.9463 10.5554 84.4071 10.3C83.8964 10.0446 83.2438 9.91695 82.4493 9.91695C81.6832 9.91695 80.9596 10.0588 80.2786 10.3426C79.5976 10.5979 79.016 11.0236 78.5336 11.6194C78.0512 12.2153 77.7391 12.9814 77.5972 13.9178L72.1493 12.726C72.3763 11.3641 72.8019 10.2149 73.4261 9.27852C74.0504 8.31378 74.8165 7.53348 75.7245 6.93761C76.6609 6.31337 77.7107 5.85937 78.8741 5.57562C80.0374 5.29188 81.2576 5.15 82.5344 5.15C84.2085 5.15 85.6414 5.36281 86.8332 5.78843C88.0533 6.21406 89.0464 6.86667 89.8125 7.74629C90.5786 8.59753 91.1461 9.64739 91.515 10.8959C91.8839 12.116 92.0683 13.5347 92.0683 15.1521V19.0252C92.0683 20.0183 92.0825 21.0256 92.1109 22.0471C92.1392 23.0686 92.1676 24.0901 92.196 25.1116C92.2527 26.1047 92.0257 27.0978 92.1109 28.0909H87.5501C87.4933 27.2397 87.3373 26.339 87.2521 25.3743C87.1954 24.3811 87.1244 23.3524 87.1244 22.3025H86.1096C85.7975 23.4942 85.2726 24.5725 84.5348 25.5372C83.7971 26.502 82.8749 27.2681 81.7683 27.8356C80.6617 28.4031 79.399 28.6868 77.9803 28.6868ZM80.4914 24.2178C81.0306 24.2178 81.5839 24.1185 82.1514 23.9199C82.7472 23.6929 83.3147 23.3807 83.8538 22.9835C84.393 22.5862 84.8611 22.0755 85.2584 21.4513C85.6556 20.7986 85.9536 20.0467 86.1522 19.1955L86.1096 16.5141L87.1311 16.5992C86.7055 16.9681 86.1664 17.266 85.5138 17.493C84.8895 17.6916 84.2085 17.8619 83.4708 18.0037C82.7614 18.1172 82.0379 18.2449 81.3001 18.3868C80.5907 18.5287 79.9381 18.7131 79.3423 18.9401C78.7748 19.1671 78.3208 19.4792 77.9803 19.8765C77.6398 20.2737 77.4695 20.8128 77.4695 21.4938C77.4695 22.3451 77.7533 23.0119 78.3208 23.4942C78.8883 23.9766 79.6118 24.2178 80.4914 24.2178Z" fill="#1E1E1E"/>
<path d="M91.5509 43.0302V38.1356H97.2117C97.6657 38.1356 98.1764 38.1214 98.7439 38.093C99.3398 38.0646 99.9214 37.9795 100.489 37.8376C101.085 37.6674 101.624 37.3978 102.106 37.029C102.589 36.6601 102.972 36.1493 103.255 35.4967C103.568 34.8157 103.724 33.9645 103.724 32.943C103.724 31.9215 103.568 31.0845 103.255 30.4318C102.972 29.7792 102.589 29.2827 102.106 28.9422C101.652 28.5733 101.156 28.3179 100.617 28.1761C100.077 28.0058 99.5668 27.9065 99.0844 27.8781C98.6304 27.8214 98.2473 27.793 97.9352 27.793L96.2098 27.8781L94.7856 28.5166L93.5087 29.3678L93.9344 26.8141L94.36 25.5372L95.2112 24.2604L96.4881 23.4091L98.3183 22.9835C100.049 22.9835 101.624 23.1963 103.043 23.6219C104.461 24.0192 105.682 24.6292 106.703 25.4521C107.753 26.2466 108.547 27.2823 109.086 28.5591C109.654 29.8076 109.938 31.2973 109.938 33.0281C109.938 35.1846 109.441 37.0148 108.448 38.5186C107.455 39.9941 105.994 41.1149 104.064 41.881C102.163 42.6471 99.7796 43.0302 96.9137 43.0302H91.5509ZM87.2521 51.0744V22.9835H92.1369L93.3811 51.0744H87.2521Z" fill="#1E1E1E"/>
<path d="M118.464 51.6703C117.244 51.6703 116.137 51.4433 115.144 50.9893C114.179 50.5353 113.399 49.8543 112.803 48.9463C112.236 48.01 111.952 46.8608 111.952 45.4988C111.952 43.9949 112.264 42.8032 112.888 41.9236C113.541 41.0156 114.378 40.3204 115.4 39.8381C116.449 39.3273 117.556 38.9584 118.719 38.7314C119.911 38.5044 121.046 38.3058 122.124 38.1356C123.259 37.9653 124.139 37.8093 124.763 37.6674C125.416 37.4971 125.87 37.2701 126.125 36.9864C126.409 36.7027 126.551 36.3196 126.551 35.8372C126.551 35.2414 126.409 34.7306 126.125 34.305C125.841 33.8794 125.43 33.5389 124.891 33.2835C124.38 33.0281 123.728 32.9004 122.933 32.9004C122.167 32.9004 121.443 33.0423 120.762 33.3261C120.081 33.5814 119.5 34.0071 119.017 34.6029C118.535 35.1988 118.223 35.9649 118.081 36.9013L112.633 35.7095C112.86 34.3476 113.286 33.1984 113.91 32.262C114.534 31.2973 115.3 30.517 116.208 29.9211C117.145 29.2969 118.195 28.8429 119.358 28.5591C120.521 28.2754 121.741 28.1335 123.018 28.1335C124.692 28.1335 126.125 28.3463 127.317 28.7719C128.537 29.1975 129.53 29.8502 130.296 30.7298C131.062 31.581 131.63 32.6309 131.999 33.8794C132.368 35.0995 132.552 36.5182 132.552 38.1356V42.0087C132.552 43.0018 132.566 44.0091 132.595 45.0306C132.623 46.0521 132.651 47.0736 132.68 48.0951C132.737 49.0882 132.807 50.0813 132.893 51.0744H127.487C127.43 50.2232 127.36 49.3152 127.274 48.3505C127.218 47.3573 127.189 46.3359 127.189 45.286H126.593C126.281 46.4777 125.756 47.556 125.019 48.5207C124.281 49.4854 123.359 50.2516 122.252 50.8191C121.145 51.3866 119.883 51.6703 118.464 51.6703ZM120.975 47.2013C121.514 47.2013 122.068 47.102 122.635 46.9034C123.231 46.6764 123.799 46.3642 124.338 45.967C124.877 45.5697 125.345 45.059 125.742 44.4348C126.139 43.7821 126.437 43.0302 126.636 42.179L126.593 39.4976L127.615 39.5827C127.189 39.9516 126.65 40.2495 125.998 40.4765C125.373 40.6751 124.692 40.8454 123.955 40.9872C123.245 41.1007 122.522 41.2284 121.784 41.3703C121.075 41.5122 120.422 41.6966 119.826 41.9236C119.259 42.1506 118.805 42.4627 118.464 42.86C118.124 43.2572 117.953 43.7963 117.953 44.4773C117.953 45.3286 118.237 45.9954 118.805 46.4777C119.372 46.9601 120.096 47.2013 120.975 47.2013Z" fill="#1E1E1E"/>
<path d="M145.381 58.3951C144.302 58.3951 143.196 58.2958 142.061 58.0972C140.954 57.8985 139.89 57.6006 138.869 57.2034C137.847 56.8061 136.967 56.2812 136.23 55.6286L137.932 50.1381C138.84 51.0744 139.947 51.7696 141.252 52.2236C142.586 52.6776 143.863 52.9046 145.083 52.9046C146.416 52.9046 147.509 52.6776 148.36 52.2236C149.24 51.798 149.935 51.2021 150.445 50.436C150.956 49.6699 151.325 48.7761 151.552 47.7546C151.807 46.7331 151.949 45.6265 151.978 44.4348L152.148 40.7319H151.382C151.183 42.6613 150.758 44.2361 150.105 45.4562C149.481 46.6764 148.672 47.5843 147.679 48.1802C146.686 48.7477 145.537 49.0315 144.231 49.0315C142.784 49.0315 141.593 48.7477 140.656 48.1802C139.748 47.5843 139.025 46.8324 138.486 45.9244C137.975 45.0164 137.606 44.0659 137.379 43.0728C137.152 42.0513 137.01 41.0865 136.953 40.1786C136.897 39.2706 136.868 38.5328 136.868 37.9653V28.7294H142.997V36.2203C142.997 36.7594 142.997 37.3695 142.997 38.0504C143.025 38.7314 143.096 39.4124 143.21 40.0934C143.323 40.7744 143.508 41.3987 143.763 41.9662C144.019 42.5336 144.373 42.9876 144.827 43.3281C145.281 43.6686 145.877 43.8389 146.615 43.8389C147.438 43.8389 148.119 43.5977 148.658 43.1153C149.225 42.6046 149.665 41.952 149.977 41.1575C150.289 40.363 150.516 39.4976 150.658 38.5612C150.8 37.6248 150.871 36.731 150.871 35.8798V28.7294H157V44.6901C157 45.5697 156.943 46.5203 156.83 47.5418C156.716 48.5633 156.518 49.5848 156.234 50.6062C155.95 51.6277 155.525 52.6067 154.957 53.543C154.418 54.4794 153.723 55.3164 152.871 56.0542C152.02 56.7919 150.97 57.3594 149.722 57.7567C148.502 58.1823 147.055 58.3951 145.381 58.3951Z" fill="#1E1E1E"/>
</svg>
