<svg width="185" height="69" viewBox="0 0 185 69" fill="none" xmlns="http://www.w3.org/2000/svg">
<path d="M0 33L11.3 0H21.4L32.65 33H24.85L16.65 5.75H16.05L7.8 33H0ZM6.25 26.6V21.6H27.4V26.6H6.25Z" fill="white"/>
<path d="M43.809 33.7C42.5423 33.7 41.4257 33.5167 40.459 33.15C39.4923 32.8167 38.6423 32.3 37.909 31.6C37.209 30.9 36.6257 30.05 36.159 29.05C35.6923 28.0167 35.3423 26.8333 35.109 25.5C34.909 24.1333 34.809 22.6333 34.809 21V6.75H42.009V19.7C42.009 20.4333 42.0257 21.2667 42.059 22.2C42.1256 23.1 42.2923 23.9667 42.559 24.8C42.8257 25.6 43.259 26.2667 43.859 26.8C44.459 27.3333 45.2923 27.6 46.359 27.6C47.259 27.6 48.059 27.3833 48.759 26.95C49.459 26.4833 50.0423 25.8167 50.509 24.95C51.009 24.0833 51.3923 23.05 51.659 21.85C51.9257 20.65 52.0757 19.3 52.109 17.8V6.75H59.309V33H53.309L53.409 24H52.659C52.259 26.2667 51.6757 28.1167 50.909 29.55C50.1757 30.9833 49.2257 32.0333 48.059 32.7C46.8923 33.3667 45.4757 33.7 43.809 33.7Z" fill="white"/>
<path d="M64.9441 33V6.75H70.9941L70.9441 16.35H71.7441C71.9775 13.9167 72.3941 11.95 72.9941 10.45C73.6275 8.95 74.4775 7.86667 75.5441 7.2C76.6441 6.5 77.9608 6.15 79.4941 6.15C79.8941 6.15 80.3108 6.18333 80.7441 6.25C81.2108 6.31667 81.6941 6.45 82.1941 6.65L81.8941 14.35C81.3275 14.0833 80.7275 13.8833 80.0941 13.75C79.4941 13.6167 78.9441 13.55 78.4441 13.55C77.1775 13.55 76.0941 13.8667 75.1941 14.5C74.3275 15.1333 73.6275 16.05 73.0941 17.25C72.5941 18.45 72.2775 19.9167 72.1441 21.65V33H64.9441Z" fill="white"/>
<path d="M91.6078 33.7C90.1745 33.7 88.8745 33.4333 87.7078 32.9C86.5745 32.3667 85.6578 31.5667 84.9578 30.5C84.2911 29.4 83.9578 28.05 83.9578 26.45C83.9578 24.6833 84.3245 23.2833 85.0578 22.25C85.8245 21.1833 86.8078 20.3667 88.0078 19.8C89.2411 19.2 90.5411 18.7667 91.9078 18.5C93.3078 18.2333 94.6411 18 95.9078 17.8C97.2411 17.6 98.2745 17.4167 99.0078 17.25C99.7745 17.05 100.308 16.7833 100.608 16.45C100.941 16.1167 101.108 15.6667 101.108 15.1C101.108 14.4 100.941 13.8 100.608 13.3C100.274 12.8 99.7911 12.4 99.1578 12.1C98.5578 11.8 97.7911 11.65 96.8578 11.65C95.9578 11.65 95.1078 11.8167 94.3078 12.15C93.5078 12.45 92.8245 12.95 92.2578 13.65C91.6911 14.35 91.3245 15.25 91.1578 16.35L84.7578 14.95C85.0245 13.35 85.5245 12 86.2578 10.9C86.9911 9.76667 87.8911 8.85 88.9578 8.15C90.0578 7.41667 91.2911 6.88333 92.6578 6.55C94.0245 6.21667 95.4578 6.05 96.9578 6.05C98.9245 6.05 100.608 6.3 102.008 6.8C103.441 7.3 104.608 8.06667 105.508 9.1C106.408 10.1 107.074 11.3333 107.508 12.8C107.941 14.2333 108.158 15.9 108.158 17.8V22.35C108.158 23.5167 108.174 24.7 108.208 25.9C108.241 27.1 108.274 28.3 108.308 29.5C108.374 30.6667 108.108 31.8333 108.208 33H102.85C102.783 32 102.6 30.9419 102.5 29.8086C102.433 28.6419 102.35 27.4333 102.35 26.2H101.158C100.791 27.6 100.174 28.8667 99.3078 30C98.4411 31.1333 97.3578 32.0333 96.0578 32.7C94.7578 33.3667 93.2745 33.7 91.6078 33.7ZM94.5578 28.45C95.1911 28.45 95.8411 28.3333 96.5078 28.1C97.2078 27.8333 97.8745 27.4667 98.5078 27C99.1411 26.5333 99.6911 25.9333 100.158 25.2C100.624 24.4333 100.974 23.55 101.208 22.55L101.158 19.4L102.358 19.5C101.858 19.9333 101.224 20.2833 100.458 20.55C99.7245 20.7833 98.9245 20.9833 98.0578 21.15C97.2245 21.2833 96.3745 21.4333 95.5078 21.6C94.6745 21.7667 93.9078 21.9833 93.2078 22.25C92.5411 22.5167 92.0078 22.8833 91.6078 23.35C91.2078 23.8167 91.0078 24.45 91.0078 25.25C91.0078 26.25 91.3411 27.0333 92.0078 27.6C92.6745 28.1667 93.5245 28.45 94.5578 28.45Z" fill="white"/>
<path d="M107.55 50.55V44.8H114.2C114.733 44.8 115.333 44.7833 116 44.75C116.7 44.7167 117.383 44.6167 118.05 44.45C118.75 44.25 119.383 43.9333 119.95 43.5C120.517 43.0667 120.967 42.4667 121.3 41.7C121.667 40.9 121.85 39.9 121.85 38.7C121.85 37.5 121.667 36.5167 121.3 35.75C120.967 34.9833 120.517 34.4 119.95 34C119.417 33.5667 118.833 33.2667 118.2 33.1C117.567 32.9 116.967 32.7833 116.4 32.75C115.867 32.6833 115.417 32.65 115.05 32.65L113.023 32.75L111.35 33.5L109.85 34.5L110.35 31.5L110.85 30L111.85 28.5L113.35 27.5L115.5 27C117.533 27 119.383 27.25 121.05 27.75C122.717 28.2167 124.15 28.9333 125.35 29.9C126.583 30.8333 127.517 32.05 128.15 33.55C128.817 35.0167 129.15 36.7667 129.15 38.8C129.15 41.3333 128.567 43.4833 127.4 45.25C126.233 46.9833 124.517 48.3 122.25 49.2C120.017 50.1 117.217 50.55 113.85 50.55H107.55ZM102.5 60V27H108.238L109.7 60H102.5Z" fill="white"/>
<path d="M139.166 60.7C137.733 60.7 136.433 60.4333 135.266 59.9C134.133 59.3667 133.216 58.5667 132.516 57.5C131.85 56.4 131.516 55.05 131.516 53.45C131.516 51.6833 131.883 50.2833 132.616 49.25C133.383 48.1833 134.366 47.3667 135.566 46.8C136.8 46.2 138.1 45.7667 139.466 45.5C140.866 45.2333 142.2 45 143.466 44.8C144.8 44.6 145.833 44.4167 146.566 44.25C147.333 44.05 147.866 43.7833 148.166 43.45C148.5 43.1167 148.666 42.6667 148.666 42.1C148.666 41.4 148.5 40.8 148.166 40.3C147.833 39.8 147.35 39.4 146.716 39.1C146.116 38.8 145.35 38.65 144.416 38.65C143.516 38.65 142.666 38.8167 141.866 39.15C141.066 39.45 140.383 39.95 139.816 40.65C139.25 41.35 138.883 42.25 138.716 43.35L132.316 41.95C132.583 40.35 133.083 39 133.816 37.9C134.55 36.7667 135.45 35.85 136.516 35.15C137.616 34.4167 138.85 33.8833 140.216 33.55C141.583 33.2167 143.016 33.05 144.516 33.05C146.483 33.05 148.166 33.3 149.566 33.8C151 34.3 152.166 35.0667 153.066 36.1C153.966 37.1 154.633 38.3333 155.066 39.8C155.5 41.2333 155.716 42.9 155.716 44.8V49.35C155.716 50.5167 155.733 51.7 155.766 52.9C155.8 54.1 155.833 55.3 155.866 56.5C155.933 57.6667 156.016 58.8333 156.116 60H149.766C149.7 59 149.616 57.9333 149.516 56.8C149.45 55.6333 149.416 54.4333 149.416 53.2H148.716C148.35 54.6 147.733 55.8667 146.866 57C146 58.1333 144.916 59.0333 143.616 59.7C142.316 60.3667 140.833 60.7 139.166 60.7ZM142.116 55.45C142.75 55.45 143.4 55.3333 144.066 55.1C144.766 54.8333 145.433 54.4667 146.066 54C146.7 53.5333 147.25 52.9333 147.716 52.2C148.183 51.4333 148.533 50.55 148.766 49.55L148.716 46.4L149.916 46.5C149.416 46.9333 148.783 47.2833 148.016 47.55C147.283 47.7833 146.483 47.9833 145.616 48.15C144.783 48.2833 143.933 48.4333 143.066 48.6C142.233 48.7667 141.466 48.9833 140.766 49.25C140.1 49.5167 139.566 49.8833 139.166 50.35C138.766 50.8167 138.566 51.45 138.566 52.25C138.566 53.25 138.9 54.0333 139.566 54.6C140.233 55.1667 141.083 55.45 142.116 55.45Z" fill="white"/>
<path d="M170.787 68.6C169.52 68.6 168.22 68.4833 166.887 68.25C165.587 68.0167 164.337 67.6667 163.137 67.2C161.937 66.7333 160.903 66.1167 160.037 65.35L162.037 58.9C163.103 60 164.403 60.8167 165.937 61.35C167.503 61.8833 169.003 62.15 170.437 62.15C172.003 62.15 173.287 61.8833 174.287 61.35C175.32 60.85 176.137 60.15 176.737 59.25C177.337 58.35 177.77 57.3 178.037 56.1C178.337 54.9 178.503 53.6 178.537 52.2L178.737 47.85H177.837C177.603 50.1167 177.103 51.9667 176.337 53.4C175.603 54.8333 174.653 55.9 173.487 56.6C172.32 57.2667 170.97 57.6 169.437 57.6C167.737 57.6 166.337 57.2667 165.237 56.6C164.17 55.9 163.32 55.0167 162.687 53.95C162.087 52.8833 161.653 51.7667 161.387 50.6C161.12 49.4 160.953 48.2667 160.887 47.2C160.82 46.1333 160.787 45.2667 160.787 44.6V33.75H167.987V42.55C167.987 43.1833 167.987 43.9 167.987 44.7C168.02 45.5 168.103 46.3 168.237 47.1C168.37 47.9 168.587 48.6333 168.887 49.3C169.187 49.9667 169.603 50.5 170.137 50.9C170.67 51.3 171.37 51.5 172.237 51.5C173.203 51.5 174.003 51.2167 174.637 50.65C175.303 50.05 175.82 49.2833 176.187 48.35C176.553 47.4167 176.82 46.4 176.987 45.3C177.153 44.2 177.237 43.15 177.237 42.15V33.75H184.437V52.5C184.437 53.5333 184.37 54.65 184.237 55.85C184.103 57.05 183.87 58.25 183.537 59.45C183.203 60.65 182.703 61.8 182.037 62.9C181.403 64 180.587 64.9833 179.587 65.85C178.587 66.7167 177.353 67.3833 175.887 67.85C174.453 68.35 172.753 68.6 170.787 68.6Z" fill="white"/>
</svg>
