<svg width="828" height="98" viewBox="0 0 828 98" fill="none" xmlns="http://www.w3.org/2000/svg">
<g clip-path="url(#clip0_15_210)">
<path d="M777.599 94.7159C751.442 94.7159 730.241 73.513 730.241 47.3579C730.241 21.2029 751.442 -1.42909e-06 777.599 0C803.753 1.42909e-06 824.957 21.2029 824.957 47.3579C824.957 73.513 803.753 94.7159 777.599 94.7159Z" fill="url(#paint0_linear_15_210)"/>
<path d="M768.463 13.2547C787.297 8.20841 806.652 19.3848 811.7 38.2179C816.747 57.0508 805.571 76.4089 786.737 81.4554C767.904 86.5016 748.546 75.3251 743.498 56.4922C738.454 37.6591 749.63 18.301 768.463 13.2547Z" fill="url(#paint1_linear_15_210)"/>
<path d="M759.979 37.6034H753.544L752.084 41.7419H750.828L756.193 26.973H757.333L762.695 41.7419H761.448L759.979 37.6034ZM753.914 36.5383H759.6L756.758 28.4945L753.914 36.5383Z" fill="white"/>
<path d="M766.248 41.7419H765.051V26.973H766.248V41.7419Z" fill="white"/>
<path d="M780.141 37.1366C779.979 38.6921 779.444 39.8821 778.537 40.7071C777.633 41.5323 776.429 41.9448 774.922 41.9448C773.871 41.9448 772.94 41.6707 772.13 41.1232C771.326 40.5754 770.703 39.8012 770.26 38.8002C769.82 37.7926 769.594 36.6431 769.588 35.3513V33.4344C769.588 32.1224 769.811 30.9593 770.251 29.945C770.691 28.9307 771.326 28.1496 772.148 27.6019C772.979 27.0474 773.933 26.7701 775.011 26.7701C776.53 26.7701 777.727 27.1995 778.604 28.0583C779.487 28.9104 780 30.0904 780.141 31.5985H778.934C778.635 29.0896 777.327 27.8352 775.011 27.8352C773.725 27.8352 772.701 28.3356 771.934 29.3364C771.177 30.3372 770.795 31.7201 770.795 33.4851V35.2905C770.795 36.9948 771.164 38.3538 771.907 39.3682C772.652 40.3826 773.658 40.8898 774.922 40.8898C776.175 40.8898 777.119 40.5787 777.758 39.9567C778.393 39.3276 778.784 38.3877 778.934 37.1366H780.141Z" fill="white"/>
<path d="M784.25 35.7268V41.7419H783.053V26.973H787.88C789.356 26.973 790.517 27.3652 791.366 28.1496C792.225 28.9341 792.653 30.0126 792.653 31.3855C792.653 32.7717 792.24 33.8435 791.415 34.6009C790.596 35.3513 789.411 35.7268 787.853 35.7268H784.25ZM784.25 34.6718H787.88C789.044 34.6718 789.93 34.3843 790.538 33.8096C791.149 33.2349 791.455 32.4335 791.455 31.4057C791.455 30.3846 791.149 29.5731 790.538 28.9713C789.936 28.3627 789.075 28.0516 787.96 28.0381H784.25V34.6718Z" fill="white"/>
<path d="M801.648 37.6034H795.213L793.753 41.7419H792.497L797.859 26.973H798.999L804.364 41.7419H803.117L801.648 37.6034ZM795.583 36.5383H801.269L798.424 28.4945L795.583 36.5383Z" fill="white"/>
<path d="M768.283 62.0578C768.283 61.2393 768.008 60.5937 767.455 60.1204C766.905 59.6401 765.897 59.187 764.43 58.7611C762.961 58.3282 761.891 57.8582 761.216 57.3511C760.257 56.6343 759.774 55.6944 759.774 54.5313C759.774 53.402 760.22 52.4857 761.109 51.7824C762.004 51.0723 763.147 50.7173 764.537 50.7173C765.478 50.7173 766.319 50.9067 767.058 51.2853C767.803 51.6641 768.381 52.1915 768.79 52.8676C769.2 53.5441 769.405 54.2978 769.405 55.1298H768.198C768.198 54.1222 767.865 53.314 767.205 52.7054C766.542 52.0901 765.653 51.7824 764.537 51.7824C763.453 51.7824 762.588 52.036 761.946 52.5432C761.305 53.0436 760.984 53.6996 760.984 54.5111C760.984 55.2615 761.271 55.8735 761.849 56.3471C762.426 56.8203 763.352 57.2395 764.623 57.6047C765.897 57.963 766.859 58.3386 767.516 58.7306C768.17 59.1161 768.665 59.5793 768.995 60.1204C769.325 60.6612 769.49 61.3004 769.49 62.0374C769.49 63.2005 769.044 64.1336 768.149 64.837C767.26 65.5403 766.083 65.892 764.623 65.892C763.624 65.892 762.707 65.7059 761.87 65.3341C761.039 64.9619 760.403 64.4413 759.97 63.7719C759.542 63.1025 759.328 62.335 759.328 61.4694H760.526C760.526 62.5106 760.898 63.3322 761.644 63.9341C762.392 64.536 763.385 64.837 764.623 64.837C765.726 64.837 766.612 64.5834 767.281 64.0762C767.95 63.569 768.283 62.8962 768.283 62.0578Z" fill="white"/>
<path d="M782.558 59.1061C782.558 60.4651 782.329 61.6588 781.873 62.6866C781.427 63.7144 780.786 64.5055 779.948 65.06C779.111 65.6146 778.143 65.892 777.046 65.892C775.39 65.892 774.055 65.2766 773.034 64.0456C772.017 62.8082 771.507 61.1415 771.507 59.0449V57.5237C771.507 56.1778 771.733 54.9877 772.188 53.9532C772.649 52.9116 773.297 52.1139 774.134 51.5593C774.971 50.9981 775.937 50.7173 777.028 50.7173C778.118 50.7173 779.078 50.9913 779.909 51.5389C780.746 52.0867 781.391 52.8609 781.846 53.8619C782.301 54.8625 782.536 56.0223 782.558 57.341V59.1061ZM781.36 57.5032C781.36 55.7247 780.972 54.3318 780.199 53.3241C779.429 52.3168 778.369 51.8129 777.028 51.8129C775.708 51.8129 774.657 52.3201 773.871 53.3342C773.092 54.3418 772.704 55.7519 772.704 57.564V59.1061C772.704 60.8574 773.092 62.247 773.871 63.2748C774.65 64.2959 775.708 64.8064 777.046 64.8064C778.402 64.8064 779.46 64.3029 780.22 63.2952C780.978 62.2809 781.36 60.8708 781.36 59.0654V57.5032Z" fill="white"/>
<path d="M795.61 61.0838C795.448 62.6393 794.914 63.8293 794.006 64.6543C793.102 65.4795 791.898 65.892 790.395 65.892C789.341 65.892 788.412 65.6179 787.599 65.0704C786.796 64.5226 786.172 63.7484 785.729 62.7474C785.289 61.7398 785.066 60.5903 785.057 59.2985V57.3816C785.057 56.0696 785.28 54.9065 785.72 53.8921C786.163 52.878 786.796 52.0968 787.617 51.5493C788.448 50.9947 789.405 50.7173 790.48 50.7173C791.999 50.7173 793.196 51.1469 794.073 52.0054C794.956 52.8576 795.47 54.0375 795.61 55.5457H794.403C794.107 53.0369 792.799 51.7824 790.48 51.7824C789.197 51.7824 788.17 52.2828 787.404 53.2838C786.646 54.2844 786.267 55.6673 786.267 57.4323V59.2377C786.267 60.942 786.637 62.301 787.376 63.3154C788.122 64.3298 789.127 64.837 790.395 64.837C791.644 64.837 792.592 64.5259 793.227 63.9039C793.863 63.2748 794.254 62.3349 794.403 61.0838H795.61Z" fill="white"/>
<path d="M760.837 73.1918C760.807 73.1185 760.788 73.0097 760.782 72.8658C760.681 72.9838 760.553 73.0751 760.394 73.1402C760.241 73.2034 760.077 73.2349 759.902 73.2349C759.652 73.2349 759.45 73.1726 759.297 73.0473C759.145 72.922 759.065 72.7635 759.065 72.5722C759.065 72.3446 759.172 72.1646 759.38 72.0323C759.591 71.8997 759.884 71.8337 760.26 71.8337H760.779V71.5679C760.779 71.4011 760.721 71.27 760.605 71.175C760.492 71.0784 760.327 71.0302 760.107 71.0302C759.908 71.0302 759.743 71.0763 759.612 71.1686C759.481 71.2605 759.417 71.3714 759.417 71.501L759.129 71.4989C759.129 71.3131 759.224 71.1527 759.417 71.0173C759.609 70.8805 759.844 70.812 760.122 70.812C760.413 70.812 760.639 70.8777 760.804 71.0088C760.972 71.1383 761.06 71.3195 761.063 71.5529V72.6584C761.063 72.8845 761.091 73.0537 761.143 73.1659V73.1918H760.837ZM759.936 73.0061C760.128 73.0061 760.3 72.9645 760.449 72.8808C760.599 72.7974 760.709 72.6859 760.779 72.5462V72.0323H760.266C759.982 72.0351 759.756 72.0827 759.597 72.1747C759.435 72.2654 759.355 72.3907 759.355 72.5505C759.355 72.6816 759.407 72.7904 759.514 72.8765C759.624 72.963 759.765 73.0061 759.936 73.0061Z" fill="white"/>
<path d="M762.151 73.1919H761.864V70.8554H762.151V73.1919ZM761.812 70.1796C761.812 70.1304 761.83 70.0895 761.867 70.0565C761.901 70.0219 761.949 70.0045 762.011 70.0045C762.072 70.0045 762.117 70.0219 762.154 70.0565C762.191 70.0895 762.209 70.1304 762.209 70.1796C762.209 70.2285 762.191 70.2694 762.154 70.3024C762.117 70.3357 762.072 70.3522 762.011 70.3522C761.949 70.3522 761.901 70.3357 761.867 70.3024C761.83 70.2694 761.812 70.2285 761.812 70.1796Z" fill="white"/>
<path d="M763.89 73.0171C764.088 73.0171 764.256 72.9666 764.391 72.8658C764.525 72.7635 764.598 72.6318 764.611 72.4708H764.886C764.876 72.6131 764.828 72.7433 764.736 72.8615C764.647 72.978 764.525 73.0696 764.372 73.1356C764.223 73.2019 764.061 73.2349 763.89 73.2349C763.55 73.2349 763.279 73.1286 763.08 72.9153C762.881 72.7024 762.784 72.4158 762.784 72.0558V71.9782C762.784 71.7479 762.826 71.5441 762.918 71.3672C763.007 71.19 763.135 71.0534 763.3 70.9568C763.468 70.8603 763.664 70.812 763.887 70.812C764.171 70.812 764.406 70.8884 764.589 71.0412C764.773 71.1936 764.873 71.3944 764.886 71.6437H764.611C764.598 71.4607 764.525 71.3131 764.391 71.201C764.256 71.0885 764.088 71.0323 763.887 71.0323C763.627 71.0323 763.428 71.1166 763.285 71.285C763.141 71.4536 763.071 71.6895 763.071 71.9935V72.069C763.071 72.3669 763.141 72.5994 763.285 72.7665C763.428 72.9333 763.63 73.0171 763.89 73.0171Z" fill="white"/>
<path d="M767.544 72.0473C767.544 72.4115 767.455 72.7008 767.275 72.9153C767.098 73.1286 766.856 73.2349 766.557 73.2349C766.202 73.2349 765.931 73.1228 765.741 72.8982V74.0901H765.457V70.8554H765.723L765.738 71.1857C765.924 70.9367 766.196 70.812 766.551 70.812C766.859 70.812 767.101 70.918 767.278 71.1295C767.455 71.3412 767.544 71.6348 767.544 72.0106V72.0473ZM767.257 72.0021C767.257 71.7039 767.189 71.4686 767.052 71.296C766.917 71.1231 766.728 71.0366 766.484 71.0366C766.309 71.0366 766.16 71.0748 766.031 71.1512C765.906 71.2275 765.808 71.3384 765.741 71.4839V72.6046C765.811 72.7384 765.909 72.8405 766.037 72.911C766.166 72.9816 766.316 73.0171 766.49 73.0171C766.731 73.0171 766.917 72.9306 767.052 72.758C767.189 72.5835 767.257 72.3317 767.257 72.0021Z" fill="white"/>
<path d="M769.817 73.1918C769.786 73.1185 769.768 73.0097 769.762 72.8658C769.661 72.9838 769.533 73.0751 769.374 73.1402C769.221 73.2034 769.056 73.2349 768.882 73.2349C768.631 73.2349 768.43 73.1726 768.277 73.0473C768.124 72.922 768.045 72.7635 768.045 72.5722C768.045 72.3446 768.152 72.1646 768.36 72.0323C768.57 71.8997 768.864 71.8337 769.24 71.8337H769.759V71.5679C769.759 71.4011 769.701 71.27 769.585 71.175C769.472 71.0784 769.307 71.0302 769.087 71.0302C768.888 71.0302 768.723 71.0763 768.592 71.1686C768.46 71.2605 768.396 71.3714 768.396 71.501L768.109 71.4989C768.109 71.3131 768.204 71.1527 768.396 71.0173C768.589 70.8805 768.824 70.812 769.102 70.812C769.392 70.812 769.618 70.8777 769.783 71.0088C769.951 71.1383 770.037 71.3195 770.043 71.5529V72.6584C770.043 72.8845 770.071 73.0537 770.123 73.1659V73.1918H769.817ZM768.916 73.0061C769.108 73.0061 769.279 72.9645 769.429 72.8808C769.579 72.7974 769.689 72.6859 769.759 72.5462V72.0323H769.246C768.961 72.0351 768.735 72.0827 768.576 72.1747C768.415 72.2654 768.332 72.3907 768.332 72.5505C768.332 72.6816 768.387 72.7904 768.494 72.8765C768.604 72.963 768.741 73.0061 768.916 73.0061Z" fill="white"/>
<path d="M770.782 73.0363C770.782 72.9859 770.801 72.9435 770.834 72.9089C770.871 72.8729 770.923 72.8552 770.987 72.8552C771.051 72.8552 771.1 72.8729 771.137 72.9089C771.174 72.9435 771.192 72.9859 771.192 73.0363C771.192 73.0868 771.174 73.1286 771.137 73.1616C771.1 73.1934 771.051 73.2093 770.987 73.2093C770.923 73.2093 770.871 73.1934 770.834 73.1616C770.801 73.1286 770.782 73.0868 770.782 73.0363Z" fill="white"/>
<path d="M771.824 71.9889C771.824 71.7644 771.873 71.5621 771.968 71.3821C772.066 71.2022 772.203 71.0626 772.377 70.9633C772.555 70.8624 772.756 70.812 772.979 70.812C773.325 70.812 773.603 70.9217 773.816 71.1405C774.03 71.3577 774.137 71.6464 774.137 72.0064V72.0604C774.137 72.2862 774.088 72.49 773.991 72.6715C773.896 72.8515 773.761 72.9902 773.584 73.0883C773.41 73.186 773.208 73.2349 772.982 73.2349C772.64 73.2349 772.362 73.1264 772.145 72.9089C771.931 72.6901 771.824 72.4008 771.824 72.0409V71.9889ZM772.112 72.0604C772.112 72.3397 772.191 72.5691 772.353 72.7491C772.512 72.9278 772.723 73.0171 772.982 73.0171C773.242 73.0171 773.453 72.9278 773.612 72.7491C773.774 72.5691 773.853 72.3324 773.853 72.0387V71.9889C773.853 71.8105 773.816 71.647 773.743 71.4989C773.67 71.3507 773.566 71.2361 773.435 71.1554C773.3 71.0735 773.15 71.0323 772.979 71.0323C772.723 71.0323 772.515 71.1231 772.353 71.3045C772.194 71.4845 772.112 71.7207 772.112 72.0128V72.0604Z" fill="white"/>
<path d="M775.928 71.0757C775.87 71.0656 775.802 71.0604 775.735 71.0604C775.555 71.0604 775.405 71.1059 775.28 71.1967C775.158 71.2859 775.069 71.4161 775.017 71.5875V73.1918H774.733V70.8554H775.011L775.017 71.2266C775.167 70.9504 775.411 70.812 775.747 70.812C775.827 70.812 775.891 70.8215 775.937 70.8401L775.928 71.0757Z" fill="white"/>
<path d="M776.221 72.0021C776.221 71.6364 776.31 71.347 776.49 71.134C776.67 70.9193 776.915 70.812 777.223 70.812C777.574 70.812 777.843 70.9388 778.027 71.1921L778.042 70.8554H778.308V73.1445C778.308 73.4451 778.216 73.6834 778.03 73.8591C777.843 74.0348 777.59 74.1225 777.269 74.1225C777.089 74.1225 776.918 74.0858 776.753 74.0125C776.591 73.9404 776.462 73.8441 776.368 73.7232L776.527 73.5676C776.731 73.7922 776.973 73.9046 777.251 73.9046C777.489 73.9046 777.678 73.8405 777.81 73.7122C777.944 73.5857 778.014 73.4094 778.021 73.1833V72.8897C777.837 73.12 777.568 73.2349 777.217 73.2349C776.918 73.2349 776.676 73.1271 776.493 72.911C776.313 72.6953 776.221 72.4035 776.221 72.0366V72.0021ZM776.511 72.0473C776.511 72.3455 776.578 72.5808 776.71 72.7534C776.841 72.9248 777.028 73.0103 777.269 73.0103C777.623 73.0103 777.874 72.868 778.021 72.5829V71.4967C777.953 71.347 777.856 71.2333 777.73 71.1554C777.605 71.0763 777.452 71.0366 777.275 71.0366C777.034 71.0366 776.847 71.1224 776.713 71.2938C776.578 71.4637 776.511 71.7149 776.511 72.0473Z" fill="white"/>
<path d="M779.017 73.462H778.754L780.211 70.0476H780.468L779.017 73.462Z" fill="white"/>
<path d="M782.558 72.5979C782.558 72.4698 782.5 72.3669 782.384 72.2893C782.271 72.2114 782.099 72.1509 781.87 72.1078C781.641 72.0632 781.461 72.0128 781.333 71.9566C781.207 71.8991 781.113 71.8291 781.051 71.7473C780.99 71.6651 780.96 71.5658 780.96 71.4491C780.96 71.2648 781.045 71.113 781.216 70.9935C781.388 70.8725 781.604 70.812 781.873 70.812C782.161 70.812 782.393 70.8768 782.567 71.0066C782.741 71.1347 782.83 71.3024 782.83 71.5095H782.543C782.543 71.373 782.478 71.259 782.35 71.1686C782.225 71.0778 782.066 71.0323 781.873 71.0323C781.684 71.0323 781.531 71.0705 781.418 71.1469C781.305 71.2217 781.247 71.3195 781.247 71.4405C781.247 71.5572 781.293 71.648 781.388 71.7127C781.485 71.776 781.656 71.8343 781.907 71.8875C782.161 71.941 782.35 71.9978 782.472 72.0583C782.601 72.1185 782.692 72.1912 782.753 72.2761C782.814 72.3611 782.845 72.464 782.845 72.585C782.845 72.7824 782.756 72.9401 782.579 73.058C782.402 73.1759 782.173 73.2349 781.889 73.2349C781.586 73.2349 781.342 73.1695 781.155 73.0384C780.966 72.9062 780.874 72.739 780.874 72.5377H781.161C781.174 72.6886 781.244 72.8069 781.372 72.8918C781.504 72.9752 781.675 73.0171 781.889 73.0171C782.087 73.0171 782.249 72.9773 782.371 72.8982C782.497 72.8191 782.558 72.7189 782.558 72.5979Z" fill="white"/>
<path d="M783.334 71.9889C783.334 71.7644 783.38 71.5621 783.478 71.3821C783.575 71.2022 783.71 71.0626 783.887 70.9633C784.064 70.8624 784.263 70.812 784.486 70.812C784.831 70.812 785.112 70.9217 785.326 71.1405C785.54 71.3577 785.647 71.6464 785.647 72.0064V72.0604C785.647 72.2862 785.598 72.49 785.5 72.6715C785.405 72.8515 785.268 72.9902 785.094 73.0883C784.917 73.186 784.718 73.2349 784.492 73.2349C784.15 73.2349 783.869 73.1264 783.655 72.9089C783.441 72.6901 783.334 72.4008 783.334 72.0409V71.9889ZM783.621 72.0604C783.621 72.3397 783.701 72.5691 783.859 72.7491C784.021 72.9278 784.232 73.0171 784.492 73.0171C784.752 73.0171 784.959 72.9278 785.118 72.7491C785.28 72.5691 785.363 72.3324 785.363 72.0387V71.9889C785.363 71.8105 785.326 71.647 785.25 71.4989C785.176 71.3507 785.075 71.2361 784.941 71.1554C784.81 71.0735 784.657 71.0323 784.486 71.0323C784.232 71.0323 784.024 71.1231 783.862 71.3045C783.7 71.4845 783.621 71.7207 783.621 72.0128V72.0604Z" fill="white"/>
<path d="M787.199 73.0171C787.397 73.0171 787.565 72.9666 787.697 72.8658C787.834 72.7635 787.908 72.6318 787.92 72.4708H788.195C788.186 72.6131 788.137 72.7433 788.045 72.8615C787.954 72.978 787.834 73.0696 787.682 73.1356C787.532 73.2019 787.37 73.2349 787.199 73.2349C786.857 73.2349 786.588 73.1286 786.389 72.9153C786.191 72.7024 786.093 72.4158 786.093 72.0558V71.9782C786.093 71.7479 786.136 71.5441 786.224 71.3672C786.316 71.19 786.441 71.0534 786.609 70.9568C786.777 70.8603 786.973 70.812 787.196 70.812C787.48 70.812 787.712 70.8884 787.895 71.0412C788.082 71.1936 788.18 71.3944 788.195 71.6437H787.92C787.905 71.4607 787.831 71.3131 787.697 71.201C787.565 71.0885 787.397 71.0323 787.196 71.0323C786.936 71.0323 786.734 71.1166 786.591 71.285C786.45 71.4536 786.38 71.6895 786.38 71.9935V72.069C786.38 72.3669 786.45 72.5994 786.591 72.7665C786.734 72.9333 786.936 73.0171 787.199 73.0171Z" fill="white"/>
<path d="M790.483 72.179H791.027V72.3972H790.483V73.1919H790.196V72.3972H788.555V72.2505L790.169 70.0476H790.483V72.179ZM788.907 72.179H790.196V70.3825L790.068 70.5811L788.907 72.179Z" fill="white"/>
<path d="M793.041 72.5979C793.041 72.4698 792.983 72.3669 792.867 72.2893C792.754 72.2114 792.582 72.1509 792.353 72.1078C792.124 72.0632 791.944 72.0128 791.816 71.9566C791.69 71.8991 791.596 71.8291 791.534 71.7473C791.473 71.6651 791.443 71.5658 791.443 71.4491C791.443 71.2648 791.528 71.113 791.699 70.9935C791.87 70.8725 792.091 70.812 792.356 70.812C792.644 70.812 792.876 70.8768 793.05 71.0066C793.227 71.1347 793.313 71.3024 793.313 71.5095H793.025C793.025 71.373 792.961 71.259 792.836 71.1686C792.708 71.0778 792.549 71.0323 792.356 71.0323C792.167 71.0323 792.014 71.0705 791.901 71.1469C791.788 71.2217 791.73 71.3195 791.73 71.4405C791.73 71.5572 791.779 71.648 791.87 71.7127C791.968 71.776 792.139 71.8343 792.393 71.8875C792.644 71.941 792.833 71.9978 792.955 72.0583C793.083 72.1185 793.175 72.1912 793.236 72.2761C793.297 72.3611 793.328 72.464 793.328 72.585C793.328 72.7824 793.239 72.9401 793.062 73.058C792.885 73.1759 792.656 73.2349 792.372 73.2349C792.072 73.2349 791.825 73.1695 791.638 73.0384C791.452 72.9062 791.357 72.739 791.357 72.5377H791.644C791.657 72.6886 791.727 72.8069 791.855 72.8918C791.987 72.9752 792.158 73.0171 792.372 73.0171C792.573 73.0171 792.732 72.9773 792.857 72.8982C792.98 72.8191 793.041 72.7189 793.041 72.5979Z" fill="white"/>
<path d="M793.817 71.9889C793.817 71.7644 793.866 71.5621 793.96 71.3821C794.058 71.2022 794.193 71.0626 794.37 70.9633C794.547 70.8624 794.746 70.812 794.972 70.812C795.314 70.812 795.595 70.9217 795.809 71.1405C796.023 71.3577 796.13 71.6464 796.13 72.0064V72.0604C796.13 72.2862 796.081 72.49 795.983 72.6715C795.888 72.8515 795.751 72.9902 795.577 73.0883C795.399 73.186 795.201 73.2349 794.975 73.2349C794.633 73.2349 794.351 73.1264 794.138 72.9089C793.924 72.6901 793.817 72.4008 793.817 72.0409V71.9889ZM794.104 72.0604C794.104 72.3397 794.183 72.5691 794.342 72.7491C794.504 72.9278 794.715 73.0171 794.975 73.0171C795.234 73.0171 795.442 72.9278 795.601 72.7491C795.763 72.5691 795.846 72.3324 795.846 72.0387V71.9889C795.846 71.8105 795.809 71.647 795.736 71.4989C795.662 71.3507 795.558 71.2361 795.424 71.1554C795.293 71.0735 795.14 71.0323 794.972 71.0323C794.715 71.0323 794.507 71.1231 794.345 71.3045C794.183 71.4845 794.104 71.7207 794.104 72.0128V72.0604Z" fill="white"/>
<path fill-rule="evenodd" clip-rule="evenodd" d="M385.179 10.1933C360.834 11.5961 312.272 14.3566 311.939 14.3566C311.786 14.3566 311.658 14.4661 311.658 14.5997C311.658 14.956 336.77 83.2678 336.981 83.4853C337.082 83.5865 343.968 81.5217 352.291 78.8965C360.614 76.2713 371.494 72.8512 376.471 71.2963C381.448 69.7415 385.601 68.3934 385.701 68.3009C385.802 68.2083 385.53 67.5453 385.096 66.8276C384.663 66.1099 384.073 64.7768 383.783 63.8654L383.257 62.2082L380.654 62.2002C377.501 62.1902 374.225 61.7459 371.494 60.9585C366.15 59.418 362.297 55.7418 361.094 51.0381C360.657 49.3323 360.638 44.9106 361.063 43.3197C362.044 39.6533 364.616 36.4479 368.249 34.3724C371.133 32.7244 375.845 31.7335 380.767 31.7393C384.241 31.7433 386.166 31.9553 388.03 32.5404L389.252 32.9239V36.8424C389.252 38.9976 389.221 40.7608 389.181 40.7608C389.142 40.7608 388.564 40.4984 387.898 40.1776C384.146 38.3713 379.099 38.2897 376.193 39.9881C373.061 41.8201 371.567 45.6323 372.6 49.1701C373.51 52.293 376.832 54.7339 380.718 55.1338C382.719 55.3401 387.25 54.677 389.31 53.8775C389.899 53.648 389.93 53.6688 389.93 54.2802C389.93 54.854 390.04 54.9526 390.929 55.1757C391.479 55.3135 392.597 55.7751 393.416 56.2011L394.907 56.9762V44.5806V32.1851H400.563H406.218L406.23 41.3814C406.242 50.4472 406.249 50.5697 406.67 50.0137C406.905 49.7032 408.797 47.0628 410.871 44.1459C412.949 41.2292 414.947 38.4602 415.317 37.993L415.989 37.1433L409.692 23.1547L403.395 9.16608L402.714 9.19428C402.341 9.20965 394.449 9.65939 385.179 10.1933ZM403.392 16.9192C405.986 18.1277 407.147 19.786 407.306 22.5065C407.397 24.0851 407.342 24.4108 406.805 25.5076C405.683 27.7891 403.71 29.041 400.975 29.2039C398.827 29.3319 397.327 28.8552 395.882 27.5869C392.292 24.4333 393.108 19.106 397.501 17.0329C399.325 16.172 401.69 16.1264 403.392 16.9192ZM469.448 20.0778C465.596 21.0778 463.46 23.6976 463.735 27.092C463.796 27.8564 464.004 28.7891 464.199 29.1647C465.22 31.1304 467.851 32.6556 472.116 33.7531C475.923 34.7317 476.8 35.2979 476.8 36.7715C476.8 37.6911 475.507 38.942 474.502 38.9961C471.694 39.1464 470.414 38.3703 469.788 36.1329L469.494 35.0944L468.339 35.2135C467.704 35.2786 466.182 35.396 464.954 35.4742L462.724 35.6159L462.864 36.4934C463.335 39.4223 465.192 41.8837 467.6 42.7667C471.184 44.0811 476.567 43.9427 479.501 42.4608C482.733 40.8259 484.444 37.1769 483.5 33.9321C482.623 30.9327 480.414 29.4634 474.612 28.0266C471.056 27.1451 470.234 26.7264 470.246 25.8009C470.267 24.318 472.473 23.5715 474.426 24.3857C475.238 24.724 476.118 25.8928 476.121 26.6337C476.121 27.0358 476.259 27.0534 478.327 26.9169C479.54 26.8368 481.08 26.7707 481.749 26.77L482.968 26.7689L482.831 25.7547C482.507 23.4027 480.821 21.3481 478.468 20.4443C477.353 20.0153 476.607 19.9205 473.857 19.8584C471.67 19.809 470.203 19.8819 469.448 20.0778ZM492.296 20.0737C489.675 20.7367 487.57 22.4456 486.879 24.4658C486.076 26.8138 486.617 29.0918 488.364 30.721C489.767 32.0314 491.548 32.846 494.973 33.7458C498.792 34.7488 499.648 35.3018 499.648 36.7715C499.648 37.6905 498.358 38.942 497.353 38.9967C494.591 39.1473 493.341 38.4247 492.73 36.3269L492.37 35.0913L491.203 35.212C490.558 35.278 489.027 35.3963 487.799 35.4745L485.569 35.6165L485.706 36.63C485.914 38.1442 487.063 40.3468 488.181 41.375C491.05 44.0114 498.505 44.4939 502.614 42.3084C505.676 40.6808 507.271 37.1024 506.348 33.9321C505.477 30.9449 503.418 29.5575 497.689 28.0956C493.314 26.9794 492.684 26.5466 493.338 25.1117C494.062 23.5297 497.472 23.7579 498.511 25.4577C498.762 25.8684 498.969 26.3976 498.969 26.6337C498.969 27.0358 499.107 27.0534 501.175 26.9169C502.388 26.8368 503.916 26.7707 504.57 26.77C505.67 26.7689 505.755 26.7294 505.755 26.2306C505.755 23.9939 503.748 21.3583 501.343 20.4402C500.198 20.0022 499.48 19.9114 496.708 19.8546C494.585 19.8113 493.027 19.8886 492.296 20.0737ZM439.472 31.7219V43.2433L445.525 43.2393C452.097 43.2351 453.695 43.0459 455.696 42.0355C457.258 41.2454 459.222 39.0636 459.833 37.44C461.187 33.8438 461.022 28.5504 459.451 25.2322C458.605 23.4422 456.671 21.5654 454.966 20.8828C453.652 20.3556 453.402 20.3375 446.543 20.27L439.472 20.2005V31.7219ZM451.349 25.9912C452.815 26.7413 453.362 28.0927 453.466 31.2346C453.555 34.0088 453.301 35.483 452.546 36.539C451.908 37.4336 451.037 37.7513 448.69 37.9438L446.714 38.106V31.7375V25.3685L448.577 25.4484C449.891 25.5048 450.713 25.666 451.349 25.9912ZM431.703 29.1786C430.511 29.3763 427.505 30.7772 426.072 31.8004C420.716 35.6334 414.917 42.9372 407.348 55.3847C402.17 63.8999 401.186 65.485 400.88 65.8034C400.602 66.0918 400.288 65.856 398.43 63.9745C395.763 61.2696 394.232 59.9616 392.518 58.9209C391.363 58.2188 391.039 58.1223 390.211 58.2301C387.852 58.5372 386.538 59.8956 386.538 62.0282C386.538 63.1957 386.627 63.3961 388.03 65.3757C391.644 70.4668 395.552 74.7751 397.235 75.5173C398.491 76.0718 401.497 76.3279 402.753 75.9875C404.492 75.5173 405.579 73.9548 411.65 63.2155C416.46 54.7055 419.542 49.5673 422.347 45.3873C427.419 37.8256 430.624 34.1558 435.626 30.1838C436.087 29.8175 436.139 29.6806 435.904 29.4406C435.607 29.1396 432.937 28.9733 431.703 29.1786ZM349.55 32.8185C353.617 33.93 356.132 35.7302 357.424 38.4531C358.099 39.873 358.145 40.1308 358.145 42.4535C358.145 44.6699 358.081 45.0732 357.543 46.2165C355.618 50.3146 350.919 52.5465 343.443 52.9153L340.5 53.0602L340.439 57.5173L340.378 61.9744H334.729H329.077V47.0643V32.1539L338.408 32.2389C347.161 32.3186 347.852 32.3544 349.55 32.8185ZM340.332 38.6313C340.238 38.7269 340.161 40.5262 340.161 42.6301V46.4554L342.395 46.3656C344.378 46.2861 344.732 46.2061 345.582 45.646C347.326 44.4948 347.919 41.8907 346.791 40.3401C346.052 39.3224 344.39 38.6569 342.328 38.5512C341.322 38.4999 340.424 38.5359 340.332 38.6313ZM442.302 47.2843C441.15 47.5694 440.624 47.962 440.154 48.8838C439.237 50.6761 439.738 53.0003 441.26 54.015C442.186 54.6324 444.11 54.7131 445.149 54.1775C445.748 53.8695 446.707 52.6651 446.711 52.2227C446.711 52.1344 446.289 51.9483 445.77 51.809C444.978 51.5963 444.798 51.6113 444.633 51.9019C443.646 53.6611 441.963 53.0712 441.963 50.9666C441.963 50.3559 442.115 49.6709 442.314 49.3867C442.775 48.7286 443.851 48.7139 444.306 49.3595C444.587 49.7625 444.777 49.8105 445.562 49.6782C446.078 49.5911 446.484 49.3956 446.484 49.2342C446.484 48.8652 445.66 47.8138 445.168 47.5559C444.572 47.2446 443.044 47.0998 442.302 47.2843ZM449.79 47.3017C447.731 47.9556 446.824 50.5062 447.875 52.6761C449.008 55.011 452.858 55.1864 454.343 52.9703C455.391 51.4039 454.859 48.5676 453.35 47.6999C452.504 47.2116 450.707 47.0106 449.79 47.3017ZM455.987 50.9162V54.527H456.891H457.798L457.817 51.9883C457.838 49.2419 457.789 49.1976 458.743 52.7901L459.21 54.5509L460.017 54.4827L460.82 54.4143L461.401 52.1576L461.981 49.9006L462.094 52.1576L462.207 54.4143H463.112H464.019L464.08 50.8496L464.141 47.2843L462.611 47.3515L461.077 47.4181L460.625 49.149C460.096 51.175 459.943 51.406 459.754 50.4652C459.677 50.0845 459.454 49.2181 459.256 48.5395L458.895 47.3054H457.441H455.987V50.9162ZM465.489 50.9162V54.527H466.619H467.75V53.201V51.875L468.996 51.7717C471.053 51.6015 472.107 50.0732 471.276 48.468C470.75 47.4548 470.298 47.3054 467.765 47.3054H465.489V50.9162ZM472.727 50.9232V54.5411L475.498 54.4775L478.269 54.4143L478.34 53.568L478.41 52.7216H476.699H474.991V50.0137V47.3054H473.857H472.727V50.9232ZM479.513 50.9287V54.5518L480.588 54.483L481.664 54.4143L481.725 50.86L481.789 47.3054H480.652H479.513V50.9287ZM485.061 47.6901C484.136 49.9816 482.681 53.9648 482.681 54.2129C482.681 54.4354 482.984 54.527 483.711 54.527C484.652 54.527 484.762 54.4687 484.979 53.85C485.202 53.2126 485.284 53.1729 486.415 53.1729C487.545 53.1729 487.628 53.2126 487.851 53.85C488.065 54.4635 488.181 54.527 489.079 54.527C489.626 54.527 490.127 54.4711 490.197 54.4027C490.265 54.3342 489.733 52.7348 489.012 50.8484L487.704 47.4181L486.464 47.3515C485.446 47.2965 485.196 47.3564 485.061 47.6901ZM491.053 50.9162V54.527H492.061H493.069L493.137 52.6074L493.201 50.6871L494.512 52.6074L495.822 54.527H496.831H497.839V50.9162V47.3054H496.831H495.819L495.755 49.1673L495.688 51.029L494.374 49.1673C493.063 47.3127 493.051 47.3054 492.055 47.3054H491.053V50.9162ZM498.786 48.1517C498.856 48.9889 498.868 48.9987 499.923 49.0665L500.992 49.1349L501.056 51.7748L501.117 54.4143L502.193 54.483L503.268 54.5518V51.8313V49.1108H504.399H505.529V48.2083V47.3054H502.122H498.716L498.786 48.1517ZM452.14 49.3366C452.467 49.6626 452.592 50.0855 452.589 50.86C452.586 52.0608 452.47 52.3147 451.761 52.6877C451.055 53.0586 450.832 53.0168 450.209 52.3935C449.39 51.5765 449.512 49.6641 450.423 49.058C450.881 48.7515 451.685 48.8817 452.14 49.3366ZM469.222 49.5621C469.222 50.0338 469.1 50.138 468.486 50.197C467.799 50.2633 467.75 50.2223 467.75 49.5621C467.75 48.9021 467.799 48.8609 468.486 48.9275C469.1 48.9865 469.222 49.0906 469.222 49.5621ZM486.925 51.4958C486.855 51.5682 486.552 51.5942 486.256 51.5539C485.718 51.4805 485.718 51.4772 486.045 50.3522L486.375 49.2236L486.717 50.2941C486.904 50.8829 486.998 51.4237 486.925 51.4958ZM421.528 52.7265C420.538 54.0516 418.152 57.931 418.262 58.0404C418.32 58.0993 422.925 56.7046 424.251 56.2261C424.44 56.158 424.242 55.4785 423.603 54.0296C423.093 52.8759 422.61 51.8563 422.527 51.7644C422.442 51.6721 421.993 52.105 421.528 52.7265Z" fill="#225E63"/>
<path fill-rule="evenodd" clip-rule="evenodd" d="M431.635 28.8795C430.447 29.0772 427.437 30.478 426.008 31.5013C420.651 35.3342 414.852 42.638 407.284 55.0855C402.106 63.6008 401.122 65.1859 400.816 65.5043C400.538 65.7927 400.22 65.5568 398.366 63.6757C395.698 60.9704 394.168 59.6625 392.454 58.6218C391.299 57.92 390.975 57.8231 390.147 57.931C387.785 58.238 386.471 59.5965 386.471 61.7294C386.471 62.8965 386.563 63.097 387.965 65.0765C391.577 70.1677 395.488 74.476 397.171 75.2182C398.427 75.7727 401.43 76.0287 402.689 75.6884C404.425 75.2182 405.515 73.6557 411.583 62.9167C416.395 54.4066 419.478 49.2685 422.283 45.0881C427.355 37.5264 430.56 33.8567 435.562 29.8847C436.023 29.5184 436.075 29.3815 435.837 29.1415C435.54 28.8405 432.873 28.6742 431.635 28.8795Z" fill="#2BBC5D"/>
<path d="M588.91 26.9659V44.7652H597.908C607.731 44.7652 610.642 44.5489 613.178 43.6601C620.753 40.9698 624.825 32.7308 623.169 23.3869C622.054 17.1896 618.079 12.4576 612.372 10.56C609.46 9.5751 607.731 9.40696 598.097 9.28685L588.91 9.16675V26.9659ZM608.678 14.5954C610.832 15.0998 613.462 16.3969 614.81 17.694C616.136 18.9431 617.416 21.0809 618.055 23.1467C618.742 25.3566 618.742 29.5842 618.055 31.8181C616.704 36.1659 613.273 39.0721 608.678 39.7449C607.636 39.8888 603.85 40.0331 600.276 40.0572L593.765 40.081L593.691 27.014L593.645 13.9709L600.321 14.091C605.176 14.187 607.471 14.3071 608.678 14.5954Z" fill="#003F40"/>
<path d="M648.171 9.7095C647.627 9.80556 646.396 10.1899 645.449 10.5262C639.127 12.8322 634.795 18.3088 634.156 24.7943C633.28 33.3458 637.78 40.8879 645.308 43.5543C650.823 45.5 657.667 44.8996 662.425 42.0651C665.196 40.3838 668.7 36.3963 668.7 34.9071C668.7 34.7629 667.774 34.6666 666.378 34.6666H664.035L662.495 36.1799C660.814 37.8375 658.376 39.2545 656.247 39.8311C654.468 40.2875 650.564 40.2875 648.599 39.8311C646.326 39.2787 644.407 38.1497 642.537 36.2282C640.478 34.1383 639.506 32.2165 638.987 29.2862C638.015 23.5933 640.832 17.9725 645.923 15.4504C648.196 14.3214 649.546 14.0091 652.363 14.0091C656.647 14.0091 659.464 15.1381 662.26 18.0206L663.964 19.7741H666.332C668.083 19.7741 668.7 19.702 668.7 19.4618C668.7 18.8373 666.876 16.0509 665.575 14.7298C663.158 12.2316 659.369 10.1899 656.173 9.66144C654.563 9.39722 649.546 9.42126 648.171 9.7095Z" fill="#003F40"/>
<path d="M624.663 27.0576V44.0401L628.761 43.9919L632.833 43.9201V27.0336V10.1712L628.736 10.0991L624.663 10.0511V27.0576Z" fill="#003F40"/>
<path d="M602.903 45.9241C595.185 47.5813 589.337 53.01 587.208 60.5045C586.45 63.1947 586.45 68.0469 587.208 70.7372C589.172 77.7272 594.357 82.8675 601.412 84.8853C603.661 85.5336 608.73 85.6299 611.168 85.1013C620.352 83.0597 627.147 74.3883 626.744 65.1404L626.674 63.3389L616.209 63.2668L605.72 63.2189L605.604 63.7471C605.531 64.0594 605.509 65.3326 605.531 66.5816L605.604 68.8636L612.066 68.7674L618.507 68.6714V69.2239C618.507 70.1848 616.942 72.6587 615.381 74.172C612.185 77.2949 607.899 78.5439 603.945 77.5109C600.44 76.5741 597.009 73.6917 595.399 70.3048C594.476 68.4072 594.476 68.3592 594.476 65.4768V62.5702L595.518 60.4324C599.423 52.4335 609.558 50.8242 615.711 57.2377L617.275 58.8949H621.443C623.738 58.8949 625.607 58.8228 625.607 58.7269C625.607 58.1745 623.643 54.7393 622.412 53.1781C620.022 50.1035 616.732 47.8697 612.589 46.5244C610.859 45.9479 610.102 45.8519 607.26 45.7798C605.436 45.7319 603.471 45.804 602.903 45.9241Z" fill="#003F40"/>
<path d="M646.961 45.9455C637.374 47.9871 630.744 56.0581 630.744 65.6421C630.744 78.2051 641.99 87.4527 654.587 85.219C660.765 84.1138 665.996 80.1507 668.862 74.3135C670.402 71.2151 670.591 71.4072 665.856 71.4072H661.853L661.144 72.4399C658.896 75.7788 654.893 77.8925 650.894 77.8925C647.319 77.8925 644.597 76.7397 642.061 74.1696C637.349 69.4133 637.16 62.3515 641.611 57.4751C644.169 54.689 647.2 53.3199 650.845 53.3437C654.493 53.3437 657.499 54.7128 660.032 57.4993L661.334 58.9164H665.477C668.199 58.9164 669.644 58.8204 669.644 58.6762C669.644 58.316 668.578 56.2261 667.585 54.6407C666.354 52.695 663.393 49.8609 661.215 48.5398C660.173 47.9391 658.327 47.0744 657.096 46.6421C655.037 45.9455 654.563 45.8734 651.413 45.8013C649.519 45.7533 647.53 45.8254 646.961 45.9455Z" fill="#003F40"/>
<path d="M651.211 33.4559C654.462 33.4559 657.096 30.8211 657.096 27.5709C657.096 24.3207 654.462 21.6859 651.211 21.6859C647.961 21.6859 645.326 24.3207 645.326 27.5709C645.326 30.8211 647.961 33.4559 651.211 33.4559Z" fill="#003F40"/>
<path d="M604.135 33.4559C607.385 33.4559 610.02 30.8211 610.02 27.5709C610.02 24.3207 607.385 21.6859 604.135 21.6859C600.884 21.6859 598.25 24.3207 598.25 27.5709C598.25 30.8211 600.884 33.4559 604.135 33.4559Z" fill="#003F40"/>
<path fill-rule="evenodd" clip-rule="evenodd" d="M0.0119324 42.7236V85.4472H48.8789H97.7458V82.5739V79.7007L65.3384 79.5956L32.9306 79.4904L32.808 77.1283L32.6852 74.7663H65.2345H97.7831L97.6624 71.9932L97.5415 69.2205L65.236 69.0149L32.9306 68.8095V66.5501V64.2907L65.3384 64.1856L97.7458 64.0805V61.415V58.7498L65.3384 58.6447L32.9306 58.5396V56.0745V53.6098L65.3384 53.5047L97.7458 53.3996V50.7341V48.0689L65.3384 47.9638L32.9306 47.8587L32.808 45.4966L32.6852 43.1342H65.2155H97.7458V21.5672V0H48.8789H0.0119324V42.7236ZM63.1743 4.58581C64.6546 5.26321 65.1453 7.537 64.9635 12.875C64.8174 17.1634 64.7667 17.3774 63.672 18.3231C62.214 19.583 60.4865 19.5809 59.023 18.3173C57.9105 17.3569 57.8708 17.1839 57.7348 12.6836C57.6557 10.0758 57.7886 7.38665 58.0385 6.54902C58.6875 4.37343 60.8797 3.53538 63.1743 4.58581ZM42.7315 7.49716C42.8825 9.13504 43.2683 12.0468 43.5898 13.9673C44.4196 18.929 44.4248 18.8969 42.7529 18.8969C41.5378 18.8969 41.29 18.7314 41.0605 17.7673C40.9127 17.1457 40.7089 16.4901 40.6074 16.3093C40.2735 15.7149 39.2692 16.9239 39.2692 17.9201C39.2692 18.7688 39.0749 18.8969 37.7901 18.8969H36.3104L36.5823 15.7132C36.9309 11.6372 37.6114 6.16451 37.8854 5.23776C38.0529 4.66961 38.5549 4.51883 40.2775 4.51883H42.4575L42.7315 7.49716ZM47.8566 11.7079V18.8969H46.4254H44.994V11.7079V4.51883H46.4254H47.8566V11.7079ZM55.9627 11.3998C56.4647 15.1845 56.8702 18.4307 56.864 18.6135C56.8579 18.7967 56.1631 18.8892 55.3196 18.8189C53.9795 18.7076 53.7693 18.5461 53.6544 17.5376C53.4799 16.0066 52.2028 16.189 52.021 17.771C51.907 18.7626 51.7185 18.8969 50.4393 18.8969H48.9874L49.2654 15.7132C49.5104 12.9046 49.7753 10.8694 50.5499 5.85396C50.7521 4.54349 50.7961 4.51883 52.9031 4.51883H55.0501L55.9627 11.3998ZM77.5225 5.52737C78.8592 6.86986 78.9438 9.60581 77.6701 10.2906L76.8136 10.7511L77.6701 11.6668C78.3618 12.4067 78.5262 13.1071 78.5262 15.3143C78.5262 18.6377 78.2029 18.8969 74.055 18.8969H71.1655V11.7079V4.51883H73.842C76.139 4.51883 76.6612 4.66179 77.5225 5.52737ZM85.643 5.44314C85.8618 6.56259 87.1276 17.66 87.1197 18.3835C87.1163 18.6936 86.5572 18.8969 85.7096 18.8969C84.4832 18.8969 84.2892 18.7544 84.1761 17.771C83.9888 16.1384 82.7646 16.0484 82.4159 17.6415C82.174 18.7499 81.9738 18.8969 80.7104 18.8969C79.3649 18.8969 79.2931 18.8292 79.5121 17.7673C79.6405 17.1457 79.935 14.5116 80.1672 11.9133C80.8641 4.11091 80.6933 4.51883 83.2665 4.51883C85.2177 4.51883 85.4826 4.62195 85.643 5.44314ZM94.2331 5.0574C95.3 5.84122 95.5931 9.13217 94.7153 10.4775C94.0984 11.4236 94.0935 11.6085 94.663 12.4256C95.0795 13.0229 95.2924 14.2713 95.2924 16.1129V18.8969H93.861H92.4299V15.6105C92.4299 12.9633 92.3104 12.3241 91.8163 12.3241C91.3226 12.3241 91.2031 12.9633 91.2031 15.6105V18.8969H89.7717H88.3406V11.7079V4.51883H90.9205C92.403 4.51883 93.8121 4.74808 94.2331 5.0574ZM60.8146 6.42742C60.3276 6.91628 60.4877 16.3553 60.9882 16.6659C61.7926 17.1654 61.965 16.1971 61.9509 11.2634C61.9378 6.78279 61.6554 5.5824 60.8146 6.42742ZM74.3327 8.09488C74.1164 9.80095 74.5719 10.7096 75.2848 9.99362C75.8384 9.4374 75.6156 6.89287 74.9951 6.68871C74.7238 6.59916 74.4485 7.18371 74.3327 8.09488ZM91.2031 8.42146C91.2031 9.7726 91.3541 10.2882 91.7143 10.1674C92.0045 10.07 92.2254 9.31619 92.2254 8.42146C92.2254 7.52673 92.0045 6.77292 91.7143 6.67554C91.3541 6.55477 91.2031 7.07033 91.2031 8.42146ZM82.8871 10.0372C82.4697 13.0972 82.5452 13.9673 83.229 13.9673C83.7001 13.9673 83.8358 13.4665 83.8138 11.8106C83.7707 8.5903 83.2265 7.54892 82.8871 10.0372ZM39.9848 9.27595C39.8161 9.44601 39.678 10.5712 39.678 11.7765C39.678 13.4501 39.8228 13.9673 40.2915 13.9673C40.9597 13.9673 41.0321 13.0894 40.5744 10.5429C40.4189 9.67605 40.1531 9.10586 39.9848 9.27595ZM52.355 11.5025C52.355 13.5076 52.479 13.9673 53.0219 13.9673C53.5649 13.9673 53.6419 13.6814 53.4353 12.4268C53.2957 11.5797 53.1796 10.4701 53.1772 9.96197C53.1747 9.45383 52.9886 9.03767 52.7638 9.03767C52.5364 9.03767 52.355 10.1333 52.355 11.5025ZM69.9388 12.9403C69.9388 13.8798 69.7857 13.9673 68.1423 13.9673C66.8777 13.9673 66.2718 13.7738 66.0964 13.3141C65.6934 12.2584 66.192 11.9133 68.1227 11.9133C69.787 11.9133 69.9388 11.9992 69.9388 12.9403ZM74.4128 12.5981C74.3999 12.7862 74.3364 13.6235 74.2725 14.4587C74.1341 16.2769 74.5924 17.262 75.264 16.5874C75.8588 15.9897 75.6049 12.6412 74.9481 12.4243C74.6673 12.3315 74.4259 12.4096 74.4128 12.5981ZM39.6597 27.6265C39.674 28.1881 40.0355 28.3454 41.3138 28.3454C43.2497 28.3454 43.4239 28.9616 41.8458 30.2257C40.7953 31.0674 40.7657 31.1887 41.2323 32.7534C41.9924 35.3024 41.8421 35.4931 40.1394 34.138L38.5555 32.8783L37.4601 33.8982C36.8576 34.4595 36.2759 34.9184 36.1671 34.9184C36.0583 34.9184 36.0889 34.0149 36.2343 32.911C36.4861 31.0081 36.4335 30.8551 35.2264 29.9583C34.5261 29.4382 33.9529 28.8626 33.9529 28.679C33.9529 28.4954 34.7775 28.3454 35.7855 28.3454C37.451 28.3454 37.6407 28.2427 37.868 27.2157C38.491 24.4038 38.5399 24.343 39.1122 25.6752C39.4033 26.353 39.6493 27.2309 39.6597 27.6265ZM52.6535 26.7022C52.9874 28.0279 53.1497 28.1499 54.7299 28.2661C55.6728 28.336 56.4458 28.5208 56.4479 28.677C56.4497 28.8335 55.8805 29.4328 55.1833 30.0092C53.9483 31.0289 53.9275 31.1032 54.3883 32.8236C54.6489 33.7952 54.7659 34.6871 54.648 34.8053C54.5304 34.9236 53.8478 34.5248 53.131 33.9193L51.8282 32.8178L50.405 34.1759L48.9818 35.5346L49.2614 33.9648C49.4145 33.1014 49.6412 32.1313 49.7643 31.8093C49.8936 31.4707 49.4518 30.7506 48.7179 30.1037C48.0194 29.4879 47.4478 28.8405 47.4478 28.6646C47.4478 28.4892 48.1847 28.3454 49.0851 28.3454C50.6794 28.3454 50.735 28.2974 51.2138 26.4993C51.7537 24.4716 52.1032 24.5209 52.6535 26.7022ZM65.892 26.4968C66.3417 28.2904 66.4028 28.3454 67.9427 28.3454C69.8554 28.3454 69.9364 28.8121 68.2825 30.3025L67.0353 31.4264L67.6513 33.1722C67.9898 34.1328 68.1542 34.9184 68.0167 34.9184C67.8795 34.9184 67.1725 34.4628 66.4456 33.9061L65.1248 32.8939L63.9537 33.9055C62.5785 35.0931 61.9683 35.2062 62.3646 34.1995C62.5204 33.8038 62.7453 32.8979 62.8644 32.1857C63.0435 31.1151 62.8959 30.7692 62.0117 30.1871C60.4779 29.1777 60.6585 28.4185 62.4685 28.2674C64.0169 28.138 64.1171 28.009 64.87 25.1617C65.1175 24.2267 65.4233 24.626 65.892 26.4968ZM79.1507 26.6332C79.5406 28.0316 79.6945 28.1491 81.2977 28.2661C83.3521 28.4165 83.456 28.8027 81.7664 30.0112C80.8488 30.6672 80.562 31.1487 80.7071 31.7851C80.8171 32.2657 81.0349 33.3058 81.1917 34.0968L81.477 35.5346L80.0062 34.1234L78.5356 32.7124L77.6108 33.5487C75.7635 35.2199 75.6037 35.1591 75.9022 32.8985C76.1571 30.9693 76.0953 30.7408 75.1033 29.957C73.6116 28.7784 73.7525 28.4128 75.755 28.2661C77.4382 28.1433 77.4913 28.0944 77.8311 26.3572C78.2222 24.359 78.5353 24.4247 79.1507 26.6332ZM92.0568 27.4211C92.344 28.1672 92.7293 28.3454 94.0571 28.3454C94.9612 28.3454 95.703 28.4843 95.7049 28.6535C95.707 28.8228 95.1329 29.4369 94.4296 30.0178C93.1888 31.0424 93.1625 31.1322 93.5585 32.9963C93.7831 34.0534 93.8775 34.9184 93.7684 34.9184C93.6596 34.9184 93.0223 34.4552 92.3529 33.8893L91.1356 32.8603L89.6587 34.0837C88.8465 34.7561 88.1407 35.2652 88.0903 35.2144C88.0396 35.164 88.1991 34.2416 88.4445 33.1655C88.8667 31.3115 88.8325 31.1475 87.7976 30.0626C87.1963 29.4324 86.7047 28.7883 86.7047 28.631C86.7047 28.474 87.4371 28.3454 88.3329 28.3454C89.7754 28.3454 89.9892 28.2169 90.2111 27.2157C90.8298 24.4223 90.878 24.3459 91.3082 25.4698C91.5246 26.0347 91.8616 26.913 92.0568 27.4211ZM39.2692 37.3831C39.2692 37.6089 39.085 37.7938 38.8601 37.7938C38.6352 37.7938 38.4513 37.6089 38.4513 37.3831C38.4513 37.157 38.6352 36.9722 38.8601 36.9722C39.085 36.9722 39.2692 37.157 39.2692 37.3831ZM69.4542 61.517C65.4765 61.5843 58.8519 61.5843 54.7326 61.5173C50.6137 61.4504 53.868 61.3954 61.9646 61.3951C70.0613 61.3951 73.432 61.4501 69.4542 61.517ZM91.1167 61.5128C89.8322 61.5943 87.6241 61.5946 86.2098 61.514C84.7951 61.4339 85.8462 61.3673 88.545 61.3667C91.2441 61.3658 92.4011 61.4315 91.1167 61.5128ZM69.7588 72.1597C67.6812 72.8005 64.3802 72.7534 55.8307 71.9621C52.8004 71.6816 53.8839 71.6141 61.9646 71.5792C71.3165 71.5389 71.6837 71.5664 69.7588 72.1597ZM6.62226 87.8092C6.29429 88.4463 4.87246 94.4061 4.86182 95.1876C4.85119 95.9841 5.77907 95.663 6.20557 94.7226C6.80096 93.4097 8.59943 93.2129 8.59943 94.4604C8.59943 95.3865 9.32856 95.9707 9.84095 95.4556C10.2229 95.0715 8.73848 88.4512 8.08009 87.6039C7.5297 86.8948 7.05902 86.9614 6.62226 87.8092ZM15.7418 87.9272C15.2531 88.4698 14.9276 89.6 14.8168 91.1396C14.6679 93.2044 14.7759 93.6673 15.6416 94.6783C16.4501 95.6224 16.8467 95.7892 17.7443 95.5628C19.0938 95.2224 20.0355 93.4839 19.2803 92.7278C18.8844 92.3315 18.6223 92.4332 18.0388 93.209C17.0001 94.59 16.3691 93.9713 16.3691 91.5722C16.3691 89.3106 17.2148 88.464 18.1667 89.7717C18.7409 90.5603 19.6405 90.2881 19.6405 89.3256C19.6405 88.4869 18.1467 87.0903 17.2503 87.0903C16.8353 87.0903 16.1564 87.467 15.7418 87.9272ZM25.7941 87.8132C24.1355 89.1628 24.1604 94.4387 25.8301 95.3364C27.0548 95.9948 28.6014 95.4534 29.0757 94.201C29.6814 92.6003 28.83 91.9098 27.853 93.209C27.4461 93.7495 26.9281 94.077 26.7011 93.9364C26.0595 93.538 25.7528 91.3088 26.1834 90.1713C26.6328 88.9837 27.3137 88.8542 28.0187 89.8233C28.5621 90.5698 29.4548 90.2606 29.4548 89.3256C29.4548 88.5703 27.9957 87.0903 27.2511 87.0903C26.9387 87.0903 26.2827 87.4157 25.7941 87.8132ZM34.5365 87.6363C34.4222 87.9367 34.3815 89.8316 34.4475 91.8469C34.5426 94.7776 34.6895 95.5118 35.1799 95.5118C35.5933 95.5118 35.8344 95.0101 35.9199 93.9713C36.076 92.0791 36.4381 92.0207 37.1943 93.766C37.7556 95.0627 38.3333 95.6979 38.9624 95.711C39.4516 95.7208 39.3187 94.5402 38.6942 93.3272C38.2001 92.3675 38.2001 92.099 38.6942 91.4201C40.1036 89.4836 38.7192 87.0903 36.1894 87.0903C35.3654 87.0903 34.6556 87.325 34.5365 87.6363ZM44.3594 87.6137C44.2399 87.9263 44.1959 89.8316 44.2616 91.8469L44.3808 95.5118L46.5275 95.6358C48.4603 95.7477 48.6745 95.6762 48.6745 94.9169C48.6745 94.2273 48.4139 94.0739 47.2434 94.0739C45.9891 94.0739 45.8119 93.9465 45.8119 93.047C45.8119 92.1799 46.0029 92.0198 47.0386 92.0198C47.9928 92.0198 48.2657 91.8377 48.2657 91.1982C48.2657 90.5591 47.9928 90.3767 47.0386 90.3767C46.221 90.3767 45.8119 90.1713 45.8119 89.7607C45.8119 89.3281 46.2467 89.1444 47.2718 89.1444C48.5513 89.1444 48.7154 89.0305 48.6008 88.2202C48.4893 87.431 48.1853 87.2773 46.5235 87.1704C45.1523 87.0821 44.5128 87.2132 44.3594 87.6137ZM53.7561 87.6363C53.6419 87.9367 53.6012 89.8316 53.6672 91.8469L53.7861 95.5118L55.3993 95.458C57.5118 95.3874 58.4889 94.2145 58.4889 91.7488C58.4889 88.6482 57.2386 87.1154 54.6935 87.0961C54.2927 87.0928 53.871 87.336 53.7561 87.6363ZM63.3958 91.4039C63.3958 94.7269 63.5195 95.7443 63.9069 95.6144C64.2699 95.4928 64.4181 94.2704 64.4181 91.4039C64.4181 88.537 64.2699 87.3146 63.9069 87.193C63.5195 87.0631 63.3958 88.0809 63.3958 91.4039ZM69.3678 87.7436C69.0601 88.5499 69.3916 89.1444 70.1502 89.1444C70.5807 89.1444 70.7518 89.9315 70.8417 92.3281C70.9358 94.8307 71.0925 95.5118 71.5743 95.5118C72.0565 95.5118 72.2132 94.8307 72.3073 92.3281C72.3971 89.9315 72.5682 89.1444 72.9987 89.1444C73.7574 89.1444 74.0889 88.5499 73.7809 87.7436C73.6012 87.2724 72.9862 87.0903 71.5743 87.0903C70.1628 87.0903 69.5477 87.2724 69.3678 87.7436ZM78.7095 87.6137C78.59 87.9263 78.546 89.8316 78.6117 91.8469L78.7309 95.5118L80.8776 95.6358C82.8101 95.7477 83.0246 95.6762 83.0246 94.9169C83.0246 94.2273 82.7639 94.0739 81.5931 94.0739C80.3493 94.0739 80.162 93.9429 80.162 93.073C80.162 92.2438 80.3902 92.0501 81.4911 91.9431C82.3429 91.8609 82.8202 91.5933 82.8202 91.1982C82.8202 90.8035 82.3429 90.5358 81.4911 90.4537C79.5882 90.2691 79.7006 89.1444 81.6218 89.1444C82.9014 89.1444 83.0655 89.0305 82.9509 88.2202C82.8391 87.431 82.5354 87.2773 80.8736 87.1704C79.5024 87.0821 78.8629 87.2132 78.7095 87.6137ZM88.1062 87.6363C87.9917 87.9367 87.9513 89.8294 88.017 91.8426C88.1456 95.7944 88.3647 96.1094 90.5933 95.5475C92.3251 95.1109 92.8387 94.1992 92.8387 91.5612C92.8387 89.5034 92.6767 88.9443 91.835 88.0989C90.7354 86.9938 88.4594 86.7115 88.1062 87.6363ZM37.5564 89.8588C37.3514 90.9294 35.9975 91.0488 35.9975 89.996C35.9975 89.4081 36.2603 89.1444 36.8454 89.1444C37.4305 89.1444 37.6511 89.3656 37.5564 89.8588ZM56.7705 91.4589C56.8677 93.1387 56.7513 93.6144 56.1897 93.8307C55.4021 94.1347 54.7073 93.3462 55.0174 92.4998C55.1274 92.1992 55.2172 91.3073 55.2172 90.5184C55.2172 89.3745 55.362 89.112 55.9331 89.2208C56.483 89.3259 56.6768 89.8432 56.7705 91.4589ZM90.9987 91.6092C90.9987 93.4238 90.8603 93.8842 90.2829 93.996C89.6642 94.1155 89.5673 93.7932 89.5673 91.6092C89.5673 89.4252 89.6642 89.1029 90.2829 89.2223C90.8603 89.3342 90.9987 89.7946 90.9987 91.6092ZM7.61964 91.9086C7.20418 92.3266 6.86109 91.6975 7.20213 91.1432C7.45976 90.7244 7.55625 90.7244 7.69447 91.1417C7.78934 91.4271 7.75542 91.7723 7.61964 91.9086ZM0.0119324 97.0523C0.0119324 97.733 2.5935 97.7712 48.4997 97.7712C92.0925 97.7712 96.9747 97.7067 96.8558 97.1342C96.7376 96.5634 91.6846 96.4883 48.3677 96.4153C2.55629 96.3376 0.0119324 96.3713 0.0119324 97.0523Z" fill="#1E4A71"/>
<path d="M237.669 56.7971H178.508V89.1386H237.669V56.7971Z" fill="#620208"/>
<path d="M206.943 7.04176C204.986 6.12436 204.329 2.92097 205.723 1.09723C207.451 -1.16352 211.06 0.316694 211.06 3.28618C211.06 4.84371 210.099 6.64814 209.095 6.97628C208.317 7.23027 208.284 7.41683 208.505 10.2581C208.94 15.8564 211.021 21.789 213.482 24.4474C214.963 26.0467 217.179 27.2721 218.589 27.2721C222.254 27.2721 226.136 22.9368 229.782 14.7721L230.696 12.7244L229.885 11.6626C228.442 9.77538 229.218 6.24859 231.188 5.73981C234.137 4.97781 236.148 8.08021 234.644 11.073C234.04 12.274 233.36 12.679 231.946 12.679C231.154 12.679 230.983 12.9862 230.463 15.3413C228.171 25.7217 228.826 32.0421 232.373 33.7745C235.388 35.2465 241.513 33.4802 246.606 29.6689C247.995 28.6297 248.235 28.2439 248.235 27.0465C248.235 23.5497 250.966 21.7638 253.043 23.9019C254.392 25.2898 254.372 28.0913 253.005 29.499C252.195 30.3323 251.798 30.4633 250.714 30.2538L249.403 30.0006L243.452 42.2436L237.502 54.4864H207.994H178.487L172.555 42.283L166.624 30.0791L165.301 30.3004C164.223 30.4802 163.794 30.3327 162.991 29.506C161.616 28.0913 161.593 25.2934 162.946 23.9019C165.071 21.7149 167.754 23.4736 167.754 27.0528C167.754 28.2427 167.995 28.6312 169.382 29.6689C172.442 31.958 177.187 34.0555 179.792 34.271C184.388 34.6507 186.404 32.5829 186.809 27.0753C187.159 22.3168 185.446 12.4183 184.349 12.8518C182.954 13.4024 180.784 11.1093 180.784 9.08478C180.784 5.66801 184.889 4.26826 186.355 7.1857C187.145 8.75783 187.052 10.4226 186.104 11.6626L185.293 12.7244L186.207 14.7721C190.751 24.9471 195.358 28.9089 199.866 26.518C203.826 24.417 206.605 18.5671 207.536 10.3725C207.857 7.54461 207.842 7.46337 206.943 7.04176Z" fill="#CFAE56"/>
<path d="M178.101 93.4012C178.101 92.6779 178.216 91.9679 178.357 91.8237C178.497 91.6788 191.949 91.5606 208.25 91.5606H237.887V93.1384V94.7159H207.994H178.101V93.4012Z" fill="#CFAE56"/>
<path d="M193.252 44.1727C193.252 43.203 192.96 42.3738 192.39 41.7291C190.781 39.9063 188.774 40.1201 187.715 42.2268C186.964 43.7215 186.964 44.7548 187.714 46.2473C189.302 49.4069 193.252 47.9272 193.252 44.1727Z" fill="white"/>
<path d="M211.117 43.6875C211.02 42.8424 210.625 41.8406 210.24 41.4611C208.684 39.9264 206.716 40.26 205.728 42.2268C204.977 43.7215 204.976 44.7548 205.726 46.2473C207.43 49.6375 211.578 47.6687 211.117 43.6875Z" fill="white"/>
<path d="M228.684 46.2473C229.426 44.7707 229.434 43.7224 228.714 42.2897C227.158 39.1922 223.146 40.5962 223.146 44.2384C223.146 47.9339 227.114 49.3726 228.684 46.2473Z" fill="white"/>
<path d="M199.469 63.338C200.086 63.6206 200.084 63.503 199.435 61.5317L198.74 59.4232L196.667 59.3514C193.558 59.2442 192.229 59.8219 189.775 62.3475C187.124 65.0756 186.134 67.793 186.456 71.453C187.14 79.2127 194.887 83.888 201.196 80.349C204.677 78.3963 204.704 78.3187 203.364 74.0971L202.211 70.4668L198.306 70.3543L194.402 70.2419V72.0305V73.8191H198.426C201.213 73.8191 202.45 73.959 202.45 74.2746C202.45 75.161 199.4 77.7241 198.032 77.9884C193.64 78.8363 189.803 75.264 189.803 70.3262C189.803 67.028 192.035 63.5989 194.615 62.9323C195.675 62.6585 198.501 62.895 199.469 63.338Z" fill="white"/>
<path d="M210.307 71.157C209.545 68.6079 208.444 65.0139 207.859 63.1703L206.979 59.5625H204.612C203.356 59.499 201.851 59.5625 201.851 59.5625L201.683 62.9402C201.683 66.662 201.979 66.5969 203.312 70.4668L204.942 75.1995L205.153 70.0723C205.281 66.9922 205.484 65.2602 205.664 65.7337C205.827 66.1676 207.026 69.8062 208.326 73.8191L210.69 81.1156H212C213.468 81.1156 213.102 81.9708 216.895 69.6779L218.355 64.9449L218.547 73.0302L218.738 81.1156L220.367 81.2369L221.996 81.3582V76.9542C221.996 72.5878 221.978 72.498 219.822 66.3815C218.626 62.9882 217.533 60.0722 217.393 59.9014C217.253 59.7303 216.032 63.2345 214.681 67.6886C213.329 72.1427 212.104 75.7877 211.957 75.7889C211.811 75.7901 211.068 73.7061 210.307 71.157Z" fill="white"/>
<path d="M226.587 60.3114C228.123 61.1054 229.661 63.2558 229.661 64.609C229.661 65.426 229.481 65.5366 228.149 65.5366C226.877 65.5366 226.557 65.3646 226.134 64.452C225.76 63.6463 225.305 63.3349 224.364 63.2418C222.743 63.0813 221.998 64.2152 222.008 65.2888C222.02 66.4517 222.366 67.1227 223.2 67.7154C223.938 68.2394 224.478 68.1092 225.832 68.8059C228.324 70.0882 230.186 72.1637 229.959 73.4051C229.995 73.5123 230.249 74.5499 229.995 76.8002C229.782 77.6551 229.314 78.7232 228.956 79.1736C227.98 80.4006 226.219 81.4834 225.861 81.0758C225.308 80.4461 224.697 78.1577 225.082 78.1577C225.79 78.1577 226.978 76.5661 226.978 75.6178C226.978 72.9565 224.94 72.358 224.088 71.878L222.177 70.4667L221.452 68.5196C219.416 63.0447 219.447 61.5494 221.624 60.3477C223.276 59.4363 224.872 59.4244 226.587 60.3114Z" fill="white"/>
<path d="M191.068 85.2571C191.068 86.4502 191.14 86.9378 191.227 86.3417C191.315 85.7453 191.315 84.7689 191.227 84.1724C191.14 83.576 191.068 84.064 191.068 85.2571Z" fill="white"/>
<path d="M195.582 86.4402C195.412 86.4402 194.795 85.7304 194.211 84.8627C193.626 83.995 192.999 83.2849 192.817 83.2849C192.635 83.2849 192.513 84.3057 192.546 85.5529L192.606 87.8206L192.834 85.9073L193.061 83.9941L194.378 85.8089C195.102 86.8065 195.835 87.6235 196.007 87.6235C196.178 87.6235 196.288 86.6027 196.251 85.3555C196.194 83.3888 196.165 83.3103 196.038 84.764C195.957 85.6861 195.752 86.4402 195.582 86.4402Z" fill="white"/>
<path d="M198.966 85.8645C199.158 84.2067 199.339 83.8663 200.151 83.6357C200.799 83.4517 200.426 83.3683 199.001 83.3781C197.842 83.386 197.281 83.4691 197.756 83.5635C198.508 83.7126 198.626 83.9962 198.678 85.7778L198.738 87.8206L198.966 85.8645Z" fill="white"/>
<path d="M202.067 84.4906C202.067 83.8761 202.389 83.6946 203.696 83.5736L205.325 83.4227L203.504 83.354L201.684 83.2849V85.4542V87.6235L203.504 87.5545L205.325 87.4857L203.696 87.3348C202.41 87.2153 202.067 87.028 202.067 86.4426C202.067 85.9018 202.404 85.6586 203.313 85.5422L204.558 85.3833L203.313 85.3201C202.356 85.2715 202.067 85.0796 202.067 84.4906Z" fill="white"/>
<path d="M209.603 85.7283C209.907 85.4151 210.104 84.7814 210.04 84.3204C209.941 83.6057 209.627 83.4646 207.912 83.3631L205.899 83.2437L205.944 85.335C205.969 86.4851 206.068 87.116 206.164 86.7359C206.408 85.775 207.775 85.8734 208.902 86.9333C209.706 87.6898 209.787 87.7081 209.447 87.0592C209.151 86.4915 209.19 86.153 209.603 85.7283Z" fill="white"/>
<path d="M211.265 83.7227L213.085 83.5749L214.906 83.427L212.874 83.3561L210.842 83.2849L210.958 85.3555L211.073 87.4261L212.798 87.4585L214.523 87.4906L212.894 87.3384L211.265 87.1857V85.4542V83.7227Z" fill="white"/>
<path d="M215.941 84.3937C215.843 83.8688 216.168 83.6946 217.469 83.5749L219.122 83.4227L217.301 83.354L215.481 83.2849V85.4542V87.6235L217.301 87.5676L219.122 87.5114L217.592 87.2715C216.558 87.1096 216.022 86.8086 215.935 86.3418C215.833 85.7882 216.099 85.6412 217.273 85.5993L218.738 85.5477L217.401 85.3036C216.576 85.1533 216.017 84.8046 215.941 84.3937Z" fill="white"/>
<path d="M223.327 85.907C223.674 85.7704 223.912 85.1884 223.912 84.4805C223.912 83.3087 223.874 83.2849 221.996 83.2849H220.08L220.132 85.5529C220.161 86.8001 220.259 87.4216 220.35 86.9333C220.569 85.7643 222.183 85.7213 222.78 86.8685C223.015 87.321 223.305 87.5914 223.423 87.4695C223.541 87.3479 223.437 86.9984 223.191 86.6932C222.841 86.2599 222.872 86.0873 223.327 85.907Z" fill="white"/>
<path d="M226.526 85.5789C226.589 83.8883 226.684 83.7182 227.649 83.5675C228.229 83.4771 227.754 83.401 226.595 83.3977C225.435 83.3949 224.866 83.4679 225.329 83.5608C226.027 83.6998 226.196 84.0463 226.314 85.5776L226.457 87.4261L226.526 85.5789Z" fill="white"/>
</g>
<defs>
<linearGradient id="paint0_linear_15_210" x1="817.465" y1="44.8171" x2="741.393" y2="49.3344" gradientUnits="userSpaceOnUse">
<stop stop-color="#2262AC"/>
<stop offset="1" stop-color="#15B9EE"/>
</linearGradient>
<linearGradient id="paint1_linear_15_210" x1="753.92" y1="57.2567" x2="820.652" y2="35.3" gradientUnits="userSpaceOnUse">
<stop stop-color="#2262AC"/>
<stop offset="1" stop-color="#15B9EE"/>
</linearGradient>
<clipPath id="clip0_15_210">
<rect width="828" height="97.7712" fill="white"/>
</clipPath>
</defs>
</svg>
