<svg width="157" height="58" viewBox="0 0 157 58" fill="none" xmlns="http://www.w3.org/2000/svg">
<path d="M0 27.9009L9.61902 0H18.2165L27.793 27.9009H21.1533L14.1732 4.86152H13.6624L6.63968 27.9009H0ZM5.32025 22.4898V18.2624H23.324V22.4898H5.32025Z" fill="#FC7A69"/>
<path d="M37.292 28.4927C36.2137 28.4927 35.2632 28.3377 34.4403 28.0277C33.6175 27.7459 32.8939 27.309 32.2697 26.7172C31.6738 26.1254 31.1772 25.4067 30.78 24.5612C30.3827 23.6876 30.0848 22.6871 29.8862 21.5598C29.7159 20.4043 29.6308 19.1361 29.6308 17.7551V5.707H35.7597V16.656C35.7597 17.276 35.7739 17.9806 35.8023 18.7697C35.8591 19.5306 36.0009 20.2634 36.2279 20.9679C36.4549 21.6443 36.8238 22.208 37.3345 22.6589C37.8453 23.1098 38.5547 23.3353 39.4626 23.3353C40.2288 23.3353 40.9098 23.1521 41.5056 22.7857C42.1015 22.3912 42.598 21.8275 42.9953 21.0948C43.4209 20.362 43.7472 19.4883 43.9742 18.4738C44.2012 17.4592 44.3289 16.3178 44.3573 15.0496V5.707H50.4862V27.9009H45.3788L45.4639 20.2915H44.8255C44.485 22.208 43.9884 23.7721 43.3358 24.984C42.7115 26.1958 41.9029 27.0836 40.9098 27.6472C39.9166 28.2109 38.7107 28.4927 37.292 28.4927Z" fill="#FC7A69"/>
<path d="M55.2831 27.9009V5.707H60.4331L60.3905 13.8236H61.0715C61.2701 11.7663 61.6248 10.1035 62.1356 8.83528C62.6747 7.56706 63.3982 6.65112 64.3062 6.08746C65.2426 5.49563 66.3634 5.19971 67.6686 5.19971C68.0091 5.19971 68.3638 5.22789 68.7327 5.28426C69.1299 5.34062 69.5414 5.45335 69.967 5.62245L69.7116 12.1327C69.2292 11.9072 68.7185 11.7381 68.1794 11.6254C67.6686 11.5126 67.2004 11.4563 66.7748 11.4563C65.6966 11.4563 64.7744 11.724 64.0083 12.2595C63.2706 12.7949 62.6747 13.57 62.2207 14.5845C61.7951 15.5991 61.5255 16.8392 61.412 18.3047V27.9009H55.2831Z" fill="#FC7A69"/>
<path d="M77.9803 28.4927C76.7602 28.4927 75.6535 28.2673 74.6604 27.8163C73.6957 27.3654 72.9154 26.689 72.3195 25.7872C71.752 24.8571 71.4683 23.7157 71.4683 22.363C71.4683 20.8693 71.7804 19.6856 72.4047 18.812C73.0573 17.9101 73.8943 17.2196 74.9158 16.7405C75.9657 16.2332 77.0723 15.8669 78.2356 15.6414C79.4274 15.4159 80.5624 15.2187 81.6406 15.0496C82.7756 14.8805 83.6552 14.7255 84.2795 14.5845C84.9321 14.4155 85.3861 14.19 85.6414 13.9082C85.9252 13.6263 86.0671 13.2459 86.0671 12.7668C86.0671 12.1749 85.9252 11.6676 85.6414 11.2449C85.3577 10.8222 84.9463 10.484 84.4071 10.2303C83.8964 9.97668 83.2438 9.84986 82.4493 9.84986C81.6832 9.84986 80.9596 9.99077 80.2786 10.2726C79.5976 10.5262 79.016 10.949 78.5336 11.5408C78.0512 12.1327 77.7391 12.8936 77.5972 13.8236L72.1493 12.6399C72.3763 11.2872 72.8019 10.1458 73.4261 9.21574C74.0504 8.25753 74.8165 7.48251 75.7245 6.89067C76.6609 6.27065 77.7107 5.81973 78.8741 5.5379C80.0374 5.25607 81.2576 5.11516 82.5344 5.11516C84.2085 5.11516 85.6414 5.32653 86.8332 5.74927C88.0533 6.17201 89.0464 6.82021 89.8125 7.69388C90.5786 8.53936 91.1461 9.58212 91.515 10.8222C91.8839 12.034 92.0683 13.4432 92.0683 15.0496V18.8965C92.0683 19.8829 92.0825 20.8834 92.1109 21.898C92.1392 22.9125 92.1676 23.9271 92.196 24.9417C92.2527 25.9281 92.0257 26.9145 92.1109 27.9009H87.5501C87.4933 27.0554 87.3373 26.1608 87.2521 25.2026C87.1954 24.2162 87.1244 23.1944 87.1244 22.1516H86.1096C85.7975 23.3353 85.2726 24.4062 84.5348 25.3644C83.7971 26.3226 82.8749 27.0836 81.7683 27.6472C80.6617 28.2109 79.399 28.4927 77.9803 28.4927ZM80.4914 24.0539C81.0306 24.0539 81.5839 23.9553 82.1514 23.758C82.7472 23.5326 83.3147 23.2225 83.8538 22.828C84.393 22.4334 84.8611 21.9261 85.2584 21.3061C85.6556 20.6579 85.9536 19.9111 86.1522 19.0656L86.1096 16.4023L87.1311 16.4869C86.7055 16.8533 86.1664 17.1492 85.5138 17.3746C84.8895 17.5719 84.2085 17.741 83.4708 17.8819C82.7614 17.9947 82.0379 18.1215 81.3001 18.2624C80.5907 18.4033 79.9381 18.5865 79.3423 18.812C78.7748 19.0374 78.3208 19.3474 77.9803 19.742C77.6398 20.1365 77.4695 20.672 77.4695 21.3484C77.4695 22.1939 77.7533 22.8562 78.3208 23.3353C78.8883 23.8144 79.6118 24.0539 80.4914 24.0539Z" fill="#FC7A69"/>
<path d="M91.5509 42.7391V37.8776H97.2117C97.6657 37.8776 98.1764 37.8635 98.7439 37.8353C99.3398 37.8071 99.9214 37.7225 100.489 37.5816C101.085 37.4125 101.624 37.1448 102.106 36.7784C102.589 36.4121 102.972 35.9048 103.255 35.2566C103.568 34.5802 103.724 33.7347 103.724 32.7201C103.724 31.7055 103.568 30.8742 103.255 30.2259C102.972 29.5777 102.589 29.0846 102.106 28.7464C101.652 28.38 101.156 28.1263 100.617 27.9854C100.077 27.8163 99.5668 27.7177 99.0844 27.6895C98.6304 27.6331 98.2473 27.605 97.9352 27.605L96.2098 27.6895L94.7856 28.3236L93.5087 29.1691L93.9344 26.6327L94.36 25.3644L95.2112 24.0962L96.4881 23.2507L98.3183 22.828C100.049 22.828 101.624 23.0394 103.043 23.4621C104.461 23.8567 105.682 24.4626 106.703 25.2799C107.753 26.069 108.547 27.0977 109.086 28.3659C109.654 29.6059 109.938 31.0855 109.938 32.8047C109.938 34.9466 109.441 36.7643 108.448 38.258C107.455 39.7235 105.994 40.8367 104.064 41.5977C102.163 42.3586 99.7796 42.7391 96.9137 42.7391H91.5509ZM87.2521 50.7289V22.828H92.1369L93.3811 50.7289H87.2521Z" fill="#FC7A69"/>
<path d="M118.464 51.3207C117.244 51.3207 116.137 51.0952 115.144 50.6443C114.179 50.1934 113.399 49.517 112.803 48.6152C112.236 47.6851 111.952 46.5437 111.952 45.191C111.952 43.6973 112.264 42.5136 112.888 41.6399C113.541 40.7381 114.378 40.0476 115.4 39.5685C116.449 39.0612 117.556 38.6949 118.719 38.4694C119.911 38.2439 121.046 38.0466 122.124 37.8776C123.259 37.7085 124.139 37.5535 124.763 37.4125C125.416 37.2434 125.87 37.018 126.125 36.7362C126.409 36.4543 126.551 36.0739 126.551 35.5948C126.551 35.0029 126.409 34.4956 126.125 34.0729C125.841 33.6501 125.43 33.312 124.891 33.0583C124.38 32.8047 123.728 32.6778 122.933 32.6778C122.167 32.6778 121.443 32.8188 120.762 33.1006C120.081 33.3542 119.5 33.777 119.017 34.3688C118.535 34.9606 118.223 35.7216 118.081 36.6516L112.633 35.4679C112.86 34.1152 113.286 32.9738 113.91 32.0437C114.534 31.0855 115.3 30.3105 116.208 29.7187C117.145 29.0986 118.195 28.6477 119.358 28.3659C120.521 28.0841 121.741 27.9431 123.018 27.9431C124.692 27.9431 126.125 28.1545 127.317 28.5773C128.537 29 129.53 29.6482 130.296 30.5219C131.062 31.3674 131.63 32.4101 131.999 33.6501C132.368 34.862 132.552 36.2711 132.552 37.8776V41.7245C132.552 42.7109 132.566 43.7114 132.595 44.726C132.623 45.7405 132.651 46.7551 132.68 47.7697C132.737 48.7561 132.807 49.7425 132.893 50.7289H127.487C127.43 49.8834 127.36 48.9815 127.274 48.0233C127.218 47.0369 127.189 46.0224 127.189 44.9796H126.593C126.281 46.1633 125.756 47.2342 125.019 48.1924C124.281 49.1506 123.359 49.9116 122.252 50.4752C121.145 51.0389 119.883 51.3207 118.464 51.3207ZM120.975 46.8819C121.514 46.8819 122.068 46.7833 122.635 46.586C123.231 46.3605 123.799 46.0505 124.338 45.656C124.877 45.2614 125.345 44.7541 125.742 44.1341C126.139 43.4859 126.437 42.7391 126.636 41.8936L126.593 39.2303L127.615 39.3149C127.189 39.6812 126.65 39.9772 125.998 40.2026C125.373 40.3999 124.692 40.569 123.955 40.7099C123.245 40.8226 122.522 40.9495 121.784 41.0904C121.075 41.2313 120.422 41.4145 119.826 41.6399C119.259 41.8654 118.805 42.1754 118.464 42.57C118.124 42.9645 117.953 43.5 117.953 44.1764C117.953 45.0219 118.237 45.6842 118.805 46.1633C119.372 46.6424 120.096 46.8819 120.975 46.8819Z" fill="#FC7A69"/>
<path d="M145.381 58C144.302 58 143.196 57.9014 142.061 57.7041C140.954 57.5068 139.89 57.2109 138.869 56.8163C137.847 56.4218 136.967 55.9004 136.23 55.2522L137.932 49.7988C138.84 50.7289 139.947 51.4193 141.252 51.8703C142.586 52.3212 143.863 52.5466 145.083 52.5466C146.416 52.5466 147.509 52.3212 148.36 51.8703C149.24 51.4475 149.935 50.8557 150.445 50.0948C150.956 49.3338 151.325 48.4461 151.552 47.4315C151.807 46.4169 151.949 45.3178 151.978 44.1341L152.148 40.4563H151.382C151.183 42.3727 150.758 43.9368 150.105 45.1487C149.481 46.3605 148.672 47.2624 147.679 47.8542C146.686 48.4179 145.537 48.6997 144.231 48.6997C142.784 48.6997 141.593 48.4179 140.656 47.8542C139.748 47.2624 139.025 46.5156 138.486 45.6137C137.975 44.7119 137.606 43.7677 137.379 42.7813C137.152 41.7668 137.01 40.8086 136.953 39.9067C136.897 39.0049 136.868 38.2721 136.868 37.7085V28.535H142.997V35.9752C142.997 36.5107 142.997 37.1166 142.997 37.793C143.025 38.4694 143.096 39.1458 143.21 39.8222C143.323 40.4985 143.508 41.1186 143.763 41.6822C144.019 42.2459 144.373 42.6968 144.827 43.035C145.281 43.3732 145.877 43.5423 146.615 43.5423C147.438 43.5423 148.119 43.3027 148.658 42.8236C149.225 42.3163 149.665 41.6681 149.977 40.879C150.289 40.0899 150.516 39.2303 150.658 38.3003C150.8 37.3703 150.871 36.4825 150.871 35.637V28.535H157V44.3878C157 45.2614 156.943 46.2055 156.83 47.2201C156.716 48.2347 156.518 49.2493 156.234 50.2639C155.95 51.2784 155.525 52.2507 154.957 53.1808C154.418 54.1108 153.723 54.9422 152.871 55.6749C152.02 56.4077 150.97 56.9713 149.722 57.3659C148.502 57.7886 147.055 58 145.381 58Z" fill="#FC7A69"/>
</svg>
